<svg width="87" height="84" viewBox="0 0 87 84" fill="none" xmlns="http://www.w3.org/2000/svg">
<path d="M79.6638 65.9025C79.6638 72.4377 74.1881 77.7549 67.4041 77.7549H12.2597C5.4999 77.7549 0 72.4611 0 65.9025V12.614C0 6.07885 5.47567 0.761719 12.2597 0.761719H67.3799C74.1396 0.761719 79.6395 6.05543 79.6395 12.614V65.9025H79.6638Z" fill="#2D2D2D"/>
<path d="M83.9998 69.82C83.9998 76.2419 78.6162 81.4216 71.9958 81.4216H17.9658C11.3211 81.4216 5.96179 76.2185 5.96179 69.82V17.6011C5.96179 11.1792 11.3454 5.99951 17.9658 5.99951H71.9716C78.6162 5.99951 83.9755 11.2027 83.9755 17.6011V69.82H83.9998Z" stroke="#FFCD00" stroke-width="5" stroke-miterlimit="10"/>
<path d="M29.6368 47.6519C36.27 47.6519 40.9133 44.0232 40.9133 37.9362V37.8582C40.9133 31.9273 36.4651 29.1959 31.5487 29.1959C29.7149 29.1959 28.4272 29.5861 27.1786 30.1714L27.4127 26.0354H39.7037V19.7924H21.4428L20.6624 33.6441L25.1496 36.1413C26.4373 35.3609 27.8419 34.7757 29.5198 34.7757C31.8999 34.7757 33.5387 35.9852 33.5387 37.9362V38.0142C33.5387 39.9652 32.017 41.2138 29.5198 41.2138C27.2176 41.2138 25.1106 40.1213 22.8865 38.2483L18.5554 43.3208C21.4038 45.9741 24.7985 47.6519 29.6368 47.6519Z" fill="#FFCD00"/>
<path d="M56.5944 47.6519C64.3982 47.6519 69.2755 41.1748 69.2755 33.449V33.371C69.2755 25.6452 64.4372 19.2461 56.6724 19.2461C48.9076 19.2461 43.9912 25.7232 43.9912 33.449V33.527C43.9912 41.2528 48.7906 47.6519 56.5944 47.6519ZM56.6724 40.9407C53.6289 40.9407 51.5999 37.8191 51.5999 33.449V33.371C51.5999 29.0008 53.5899 25.9574 56.5944 25.9574C59.5988 25.9574 61.6668 29.1179 61.6668 33.449V33.527C61.6668 37.8582 59.7159 40.9407 56.6724 40.9407Z" fill="#FFCD00"/>
<path d="M18.892 56.2437C18.892 55.6096 18.9835 55.0672 19.1667 54.6163C19.3499 54.1654 19.6035 53.792 19.9276 53.4961C20.2517 53.2002 20.6391 52.9889 21.09 52.862C21.555 52.7211 22.0552 52.6507 22.5906 52.6507C23.1261 52.6507 23.6192 52.7141 24.0701 52.8409C24.521 52.9677 24.9085 53.172 25.2325 53.4538C25.5707 53.7356 25.8314 54.109 26.0146 54.574C26.1977 55.0249 26.2964 55.5815 26.3104 56.2437C26.2964 56.9059 26.1977 57.4695 26.0146 57.9345C25.8314 58.3854 25.5707 58.7517 25.2325 59.0335C24.9085 59.3153 24.521 59.5197 24.0701 59.6465C23.6192 59.7733 23.1261 59.8367 22.5906 59.8367C22.0552 59.8367 21.555 59.7733 21.09 59.6465C20.6391 59.5197 20.2517 59.3153 19.9276 59.0335C19.6035 58.7517 19.3499 58.3854 19.1667 57.9345C18.9835 57.4695 18.892 56.9059 18.892 56.2437ZM21.3437 56.2437C21.3437 57.4554 21.7593 58.0613 22.5906 58.0613C23.0274 58.0613 23.3374 57.9345 23.5206 57.6809C23.7178 57.4132 23.8235 56.9341 23.8376 56.2437C23.8235 55.5674 23.7178 55.0953 23.5206 54.8276C23.3374 54.5599 23.0274 54.4261 22.5906 54.4261C22.1538 54.4261 21.8368 54.5599 21.6395 54.8276C21.4423 55.0953 21.3437 55.5674 21.3437 56.2437ZM27.4729 64.0637C27.4729 63.4297 27.5645 62.8872 27.7476 62.4363C27.9308 61.9854 28.1844 61.6121 28.5085 61.3162C28.8326 61.0203 29.2201 60.8089 29.671 60.6821C30.1359 60.5412 30.6361 60.4707 31.1716 60.4707C31.707 60.4707 32.2001 60.5342 32.651 60.661C33.1019 60.7878 33.4894 60.9921 33.8135 61.2739C34.1516 61.5557 34.4123 61.9291 34.5955 62.3941C34.7787 62.8449 34.8773 63.4015 34.8914 64.0637C34.8773 64.726 34.7787 65.2896 34.5955 65.7546C34.4123 66.2055 34.1516 66.5718 33.8135 66.8536C33.4894 67.1354 33.1019 67.3397 32.651 67.4665C32.2001 67.5933 31.707 67.6567 31.1716 67.6567C30.6361 67.6567 30.1359 67.5933 29.671 67.4665C29.2201 67.3397 28.8326 67.1354 28.5085 66.8536C28.1844 66.5718 27.9308 66.2055 27.7476 65.7546C27.5645 65.2896 27.4729 64.726 27.4729 64.0637ZM29.9246 64.0637C29.9246 65.2755 30.3402 65.8814 31.1716 65.8814C31.6084 65.8814 31.9183 65.7546 32.1015 65.5009C32.2988 65.2332 32.4045 64.7542 32.4185 64.0637C32.4045 63.3874 32.2988 62.9154 32.1015 62.6477C31.9183 62.38 31.6084 62.2461 31.1716 62.2461C30.7348 62.2461 30.4177 62.38 30.2205 62.6477C30.0232 62.9154 29.9246 63.3874 29.9246 64.0637ZM32.1226 52.6084L33.6655 54.0033L21.4916 67.9949L19.9487 66.5366L32.1226 52.6084Z" fill="#FFCD00"/>
<path d="M36.3675 60.3017C36.3675 57.8359 36.91 55.9408 37.995 54.6163C39.0799 53.2777 40.6298 52.6084 42.6447 52.6084C43.7015 52.6084 44.6244 52.7916 45.4134 53.1579C46.2025 53.5243 46.8577 54.0456 47.379 54.722C47.9004 55.3983 48.2878 56.2085 48.5415 57.1525C48.7951 58.0966 48.9219 59.1463 48.9219 60.3017C48.9219 62.7674 48.3724 64.6696 47.2733 66.0082C46.1884 67.3327 44.6455 67.9949 42.6447 67.9949C41.5739 67.9949 40.6439 67.8117 39.8549 67.4454C39.0658 67.079 38.4106 66.5577 37.8893 65.8814C37.382 65.2051 37.0016 64.3949 36.748 63.4508C36.4943 62.5068 36.3675 61.4571 36.3675 60.3017ZM39.411 60.3017C39.411 61.0484 39.4744 61.7389 39.6012 62.3729C39.7281 62.9929 39.9183 63.5283 40.1719 63.9792C40.4396 64.4301 40.7778 64.7823 41.1864 65.036C41.595 65.2896 42.0811 65.4164 42.6447 65.4164C43.6733 65.4164 44.4694 65.0148 45.033 64.2117C45.5966 63.4086 45.8784 62.1052 45.8784 60.3017C45.8784 59.5831 45.815 58.9138 45.6882 58.2938C45.5755 57.6738 45.3923 57.1314 45.1387 56.6664C44.8851 56.2014 44.5539 55.8421 44.1453 55.5885C43.7367 55.3208 43.2365 55.1869 42.6447 55.1869C41.6161 55.1869 40.82 55.6026 40.2564 56.4339C39.6928 57.2511 39.411 58.5404 39.411 60.3017Z" fill="#FFCD00"/>
<path d="M50.9915 52.9043H59.7626V55.4828H53.887V59.1392H59.2977V61.7177H53.887V67.699H50.9915V52.9043Z" fill="#FFCD00"/>
<path d="M61.7243 52.9043H70.4954V55.4828H64.6198V59.1392H70.0304V61.7177H64.6198V67.699H61.7243V52.9043Z" fill="#FFCD00"/>
</svg>
