<svg width="477" height="289" viewBox="0 0 477 289" fill="none" xmlns="http://www.w3.org/2000/svg">
<path d="M73.7797 95.1108H94.0802C103.471 95.1108 108.982 91.1433 108.982 84.6213V84.5126C108.982 79.3494 105.946 76.7406 101.166 75.2189C104.652 73.7514 107.239 71.1426 107.239 66.7403V66.6316C107.239 64.0228 106.283 62.0119 104.708 60.4901C102.403 58.2618 98.9163 57.0661 93.9677 57.0661H73.7797V95.1108ZM84.4079 72.2296V65.5446H91.4934C94.755 65.5446 96.442 66.7403 96.442 68.8056V68.9143C96.442 71.1426 94.5863 72.2296 91.2685 72.2296H84.4079ZM84.4079 86.6323V79.6212H92.7306C96.3858 79.6212 98.0728 80.9799 98.0728 83.0452V83.1539C98.0728 85.3822 96.1608 86.6323 92.843 86.6323H84.4079Z" fill="white"/>
<path d="M113.978 95.1108H143.951V85.8714H124.888V57.0661H113.978V95.1108Z" fill="white"/>
<path d="M145.481 95.1108H156.953L159.765 88.3171H174.948L177.816 95.1108H189.513L172.755 56.7943H162.239L145.481 95.1108ZM162.97 80.1103L167.413 69.2947L171.799 80.1103H162.97Z" fill="white"/>
<path d="M209.757 95.8717C218.473 95.8717 223.478 92.2303 227.189 87.2845L218.979 81.6321C216.617 84.4039 214.199 86.2518 210.094 86.2518C204.583 86.2518 200.703 81.7952 200.703 76.0884V75.9797C200.703 70.4361 204.583 65.9251 210.094 65.9251C213.862 65.9251 216.449 67.6643 218.698 70.3817L226.908 64.2402C223.422 59.5662 218.248 56.3052 210.207 56.3052C198.285 56.3052 189.456 65.0011 189.456 76.0884V76.1971C189.456 87.5562 198.51 95.8717 209.757 95.8717Z" fill="white"/>
<path d="M231.883 95.1108H242.793V85.2735L246.785 80.9799L256.682 95.1108H269.785L254.377 73.4253L269.279 57.0661H256.345L242.793 72.5014V57.0661H231.883V95.1108Z" fill="white"/>
<path d="M73.7797 135.873H84.6891V122.286H103.303V113.535H84.6891V107.068H105.271V97.8283H73.7797V135.873Z" fill="white"/>
<path d="M110.244 135.873H121.153V124.351H125.933L133.862 135.873H146.459L137.068 122.612C141.96 120.601 145.165 116.742 145.165 110.927V110.818C145.165 107.068 143.984 104.133 141.679 101.959C139.036 99.3501 134.875 97.8283 128.857 97.8283H110.244V135.873ZM121.153 116.09V106.959H128.295C131.95 106.959 134.2 108.481 134.2 111.47V111.579C134.2 114.351 132.063 116.09 128.351 116.09H121.153Z" fill="white"/>
<path d="M150.887 135.873H161.853V97.8283H150.887V135.873Z" fill="white"/>
<path d="M169.059 135.873H184.017C198.188 135.873 206.455 127.721 206.455 116.742V116.633C206.455 105.655 198.301 97.8283 184.242 97.8283H169.059V135.873ZM179.969 126.525V107.176H184.411C190.934 107.176 195.264 110.709 195.264 116.796V116.905C195.264 123.047 190.934 126.525 184.411 126.525H179.969Z" fill="white"/>
<path d="M206.109 135.873H217.58L220.392 129.079H235.575L238.443 135.873H250.14L233.382 97.5565H222.866L206.109 135.873ZM223.597 120.873L228.04 110.057L232.426 120.873H223.597Z" fill="white"/>
<path d="M259.113 135.873H270.079V121.47L285.037 97.8283H272.834L264.68 111.687L256.583 97.8283H244.155L259.113 121.633V135.873Z" fill="white"/>
<path d="M40.47 79.751C40.5051 80.5984 39.8739 81.3103 39.0323 81.3781L1.71979 83.1408C0.878156 83.1747 0.176794 82.5306 0.106658 81.6832L0.00145372 79.3442C-0.0336144 78.4968 0.597611 77.7849 1.43925 77.7171L38.7517 75.9544C39.5933 75.9205 40.2947 76.5646 40.3648 77.412L40.47 79.751Z" fill="white"/>
<path d="M71.3652 0.00127849C72.2069 -0.0326141 72.9082 0.611345 72.9784 1.45866L74.872 39.215C74.9071 40.0623 74.2759 40.7741 73.4342 40.8419L71.1548 40.9435C70.3132 40.9774 69.6118 40.3335 69.5417 39.4862L67.648 1.7298C67.6129 0.882486 68.2442 0.170742 69.0858 0.102956L71.3652 0.00127849Z" fill="white"/>
<path d="M15.1506 21.0143C15.8169 20.2687 16.904 20.167 17.5703 20.7771L46.6768 47.9251C47.3431 48.5352 47.308 49.6198 46.6417 50.3654L44.8182 52.3651C44.1519 53.1107 43.0648 53.2124 42.3985 52.6023L13.292 25.4543C12.6257 24.8442 12.6608 23.7596 13.327 23.014L15.1506 21.0143Z" fill="white"/>
<path d="M46.8616 168.331C46.8616 168.331 50.8602 205.611 98.738 206.829H239.776" stroke="#379FDD" stroke-width="6" stroke-miterlimit="10"/>
<path d="M317.879 58.123C317.879 58.123 307.553 21.5353 260.875 20.3813L123.403 20.551" stroke="#379FDD" stroke-width="6" stroke-miterlimit="10"/>
<path d="M417.069 216.167C417.069 225.585 409.178 233.248 399.4 233.248H319.926C310.184 233.248 302.258 225.619 302.258 216.167V139.367C302.258 129.949 310.149 122.286 319.926 122.286H399.366C409.108 122.286 417.034 129.915 417.034 139.367V216.167H417.069Z" fill="#2D2D2D"/>
<path d="M423.318 221.813C423.318 231.068 415.559 238.533 406.018 238.533H328.15C318.574 238.533 310.85 231.034 310.85 221.813V146.555C310.85 137.299 318.609 129.834 328.15 129.834H405.983C415.559 129.834 423.283 137.333 423.283 146.555V221.813H423.318Z" stroke="#EFCB37" stroke-width="5" stroke-miterlimit="10"/>
<path d="M443.21 225.224C443.175 224.512 443.701 223.936 444.403 223.902L475.122 222.682C475.824 222.648 476.385 223.191 476.42 223.902L476.49 225.8C476.525 226.512 475.999 227.088 475.298 227.122L444.578 228.342C443.877 228.376 443.316 227.834 443.28 227.122L443.21 225.224Z" fill="white"/>
<path d="M415.015 288.976C414.314 289.01 413.753 288.468 413.718 287.756L412.385 256.643C412.35 255.931 412.876 255.355 413.578 255.321L415.471 255.253C416.173 255.219 416.734 255.761 416.769 256.473L418.101 287.586C418.136 288.298 417.61 288.874 416.909 288.908L415.015 288.976Z" fill="white"/>
<path d="M459.376 273.487C458.815 274.097 457.938 274.165 457.412 273.657L433.636 251.118C433.11 250.61 433.11 249.695 433.671 249.119L435.179 247.492C435.74 246.882 436.617 246.814 437.143 247.322L460.919 269.861C461.445 270.369 461.445 271.284 460.884 271.86L459.376 273.487Z" fill="white"/>
<path d="M344.97 189.864C354.53 189.864 361.222 184.634 361.222 175.861V175.749C361.222 167.201 354.811 163.265 347.726 163.265C345.083 163.265 343.227 163.827 341.428 164.671L341.765 158.71H359.479V149.713H333.161L332.037 169.676L338.504 173.275C340.359 172.15 342.384 171.306 344.802 171.306C348.232 171.306 350.594 173.05 350.594 175.861V175.974C350.594 178.786 348.401 180.585 344.802 180.585C341.484 180.585 338.447 179.011 335.242 176.311L329 183.622C333.105 187.446 337.997 189.864 344.97 189.864Z" fill="#EFCB37"/>
<path d="M383.822 189.864C395.069 189.864 402.098 180.529 402.098 169.395V169.282C402.098 158.148 395.125 148.925 383.934 148.925C372.744 148.925 365.658 158.26 365.658 169.395V169.507C365.658 180.641 372.575 189.864 383.822 189.864ZM383.934 180.191C379.548 180.191 376.624 175.693 376.624 169.395V169.282C376.624 162.984 379.492 158.598 383.822 158.598C388.152 158.598 391.132 163.153 391.132 169.395V169.507C391.132 175.749 388.32 180.191 383.934 180.191Z" fill="#EFCB37"/>
<path d="M329.485 202.246C329.485 201.332 329.617 200.551 329.881 199.901C330.145 199.251 330.511 198.713 330.978 198.286C331.445 197.86 332.003 197.555 332.653 197.373C333.323 197.169 334.044 197.068 334.816 197.068C335.587 197.068 336.298 197.159 336.948 197.342C337.598 197.525 338.156 197.819 338.623 198.225C339.11 198.632 339.486 199.17 339.75 199.84C340.014 200.49 340.156 201.292 340.177 202.246C340.156 203.201 340.014 204.013 339.75 204.683C339.486 205.333 339.11 205.861 338.623 206.267C338.156 206.673 337.598 206.968 336.948 207.15C336.298 207.333 335.587 207.424 334.816 207.424C334.044 207.424 333.323 207.333 332.653 207.15C332.003 206.968 331.445 206.673 330.978 206.267C330.511 205.861 330.145 205.333 329.881 204.683C329.617 204.013 329.485 203.201 329.485 202.246ZM333.018 202.246C333.018 203.993 333.617 204.866 334.816 204.866C335.445 204.866 335.892 204.683 336.156 204.317C336.44 203.932 336.592 203.241 336.613 202.246C336.592 201.271 336.44 200.591 336.156 200.205C335.892 199.82 335.445 199.627 334.816 199.627C334.186 199.627 333.729 199.82 333.445 200.205C333.161 200.591 333.018 201.271 333.018 202.246ZM341.852 213.516C341.852 212.603 341.984 211.821 342.248 211.171C342.512 210.521 342.877 209.983 343.344 209.557C343.811 209.13 344.37 208.826 345.02 208.643C345.69 208.44 346.411 208.338 347.182 208.338C347.954 208.338 348.665 208.43 349.315 208.612C349.964 208.795 350.523 209.09 350.99 209.496C351.477 209.902 351.853 210.44 352.117 211.11C352.381 211.76 352.523 212.562 352.543 213.516C352.523 214.471 352.381 215.283 352.117 215.953C351.853 216.603 351.477 217.131 350.99 217.537C350.523 217.943 349.964 218.238 349.315 218.421C348.665 218.603 347.954 218.695 347.182 218.695C346.411 218.695 345.69 218.603 345.02 218.421C344.37 218.238 343.811 217.943 343.344 217.537C342.877 217.131 342.512 216.603 342.248 215.953C341.984 215.283 341.852 214.471 341.852 213.516ZM345.385 213.516C345.385 215.263 345.984 216.136 347.182 216.136C347.812 216.136 348.259 215.953 348.523 215.588C348.807 215.202 348.959 214.511 348.98 213.516C348.959 212.542 348.807 211.861 348.523 211.476C348.259 211.09 347.812 210.897 347.182 210.897C346.553 210.897 346.096 211.09 345.812 211.476C345.527 211.861 345.385 212.542 345.385 213.516ZM348.553 197.007L350.777 199.017L333.232 219.182L331.008 217.08L348.553 197.007Z" fill="#EFCB37"/>
<path d="M354.671 208.095C354.671 204.541 355.453 201.81 357.016 199.901C358.58 197.972 360.814 197.007 363.717 197.007C365.24 197.007 366.571 197.271 367.708 197.799C368.845 198.327 369.789 199.078 370.541 200.053C371.292 201.028 371.85 202.195 372.216 203.556C372.581 204.917 372.764 206.429 372.764 208.095C372.764 211.648 371.972 214.39 370.388 216.319C368.825 218.228 366.601 219.182 363.717 219.182C362.174 219.182 360.834 218.918 359.697 218.39C358.56 217.862 357.615 217.111 356.864 216.136C356.133 215.161 355.585 213.994 355.219 212.633C354.854 211.273 354.671 209.76 354.671 208.095ZM359.057 208.095C359.057 209.171 359.148 210.166 359.331 211.08C359.514 211.973 359.788 212.745 360.154 213.395C360.539 214.044 361.027 214.552 361.616 214.918C362.205 215.283 362.905 215.466 363.717 215.466C365.2 215.466 366.347 214.887 367.159 213.73C367.972 212.572 368.378 210.694 368.378 208.095C368.378 207.059 368.286 206.094 368.104 205.201C367.941 204.307 367.677 203.526 367.312 202.855C366.946 202.185 366.469 201.667 365.88 201.302C365.291 200.916 364.57 200.723 363.717 200.723C362.235 200.723 361.088 201.322 360.275 202.52C359.463 203.698 359.057 205.556 359.057 208.095Z" fill="#EFCB37"/>
<path d="M375.747 197.433H388.388V201.15H379.92V206.419H387.718V210.135H379.92V218.756H375.747V197.433Z" fill="#EFCB37"/>
<path d="M391.215 197.433H403.856V201.15H395.388V206.419H403.186V210.135H395.388V218.756H391.215V197.433Z" fill="#EFCB37"/>
<path d="M75.4609 155.5C75.7609 155.45 76.0943 155.417 76.4609 155.4C76.8443 155.367 77.2276 155.342 77.6109 155.325C78.0109 155.292 78.3943 155.275 78.7609 155.275C79.1276 155.258 79.4526 155.25 79.7359 155.25C81.1193 155.25 82.2693 155.467 83.1859 155.9C84.1193 156.317 84.8609 156.917 85.4109 157.7C85.9776 158.467 86.3776 159.392 86.6109 160.475C86.8443 161.558 86.9609 162.767 86.9609 164.1C86.9609 165.317 86.8443 166.483 86.6109 167.6C86.3943 168.7 86.0026 169.675 85.4359 170.525C84.8693 171.358 84.1026 172.025 83.1359 172.525C82.1693 173.025 80.9526 173.275 79.4859 173.275C79.2693 173.275 78.9776 173.267 78.6109 173.25C78.2443 173.233 77.8609 173.208 77.4609 173.175C77.0609 173.158 76.6776 173.133 76.3109 173.1C75.9443 173.083 75.6609 173.058 75.4609 173.025V155.5ZM80.0609 158.15C79.7943 158.15 79.5193 158.158 79.2359 158.175C78.9693 158.175 78.7609 158.192 78.6109 158.225V170.275C78.6609 170.292 78.7443 170.308 78.8609 170.325C78.9943 170.325 79.1276 170.333 79.2609 170.35C79.4109 170.35 79.5443 170.358 79.6609 170.375C79.7943 170.375 79.8859 170.375 79.9359 170.375C80.6859 170.375 81.3026 170.2 81.7859 169.85C82.2693 169.5 82.6443 169.033 82.9109 168.45C83.1943 167.867 83.3859 167.2 83.4859 166.45C83.6026 165.683 83.6609 164.883 83.6609 164.05C83.6609 163.283 83.6109 162.542 83.5109 161.825C83.4276 161.108 83.2526 160.483 82.9859 159.95C82.7359 159.4 82.3693 158.967 81.8859 158.65C81.4193 158.317 80.8109 158.15 80.0609 158.15ZM90.0898 155.5H98.8398V158.4H93.2398V162.7H98.3148V165.6H93.2398V170.1H98.9398V173H90.0898V155.5ZM108.459 155.675C109.142 155.525 109.876 155.417 110.659 155.35C111.442 155.283 112.117 155.25 112.684 155.25C113.401 155.25 114.101 155.325 114.784 155.475C115.467 155.608 116.067 155.867 116.584 156.25C117.117 156.617 117.542 157.125 117.859 157.775C118.192 158.408 118.359 159.217 118.359 160.2C118.359 161.617 118.092 162.775 117.559 163.675C117.042 164.558 116.326 165.167 115.409 165.5L116.409 166.3L119.634 173H116.009L112.959 166.1L111.609 165.775V173H108.459V155.675ZM111.609 163.625H112.684C113.467 163.625 114.059 163.392 114.459 162.925C114.859 162.442 115.059 161.7 115.059 160.7C115.059 159.95 114.892 159.342 114.559 158.875C114.226 158.392 113.701 158.15 112.984 158.15C112.717 158.15 112.459 158.158 112.209 158.175C111.959 158.192 111.759 158.225 111.609 158.275V163.625ZM126.007 173.325C125.207 173.292 124.524 173.192 123.957 173.025C123.391 172.875 122.941 172.692 122.607 172.475L123.432 169.8C123.682 169.983 124.024 170.15 124.457 170.3C124.907 170.45 125.424 170.558 126.007 170.625V165.125C125.574 164.875 125.149 164.6 124.732 164.3C124.316 164 123.941 163.65 123.607 163.25C123.291 162.833 123.024 162.358 122.807 161.825C122.607 161.275 122.507 160.625 122.507 159.875C122.507 158.575 122.824 157.55 123.457 156.8C124.091 156.033 124.941 155.533 126.007 155.3V153H128.382V155.2C128.966 155.233 129.482 155.317 129.932 155.45C130.382 155.567 130.807 155.725 131.207 155.925L130.382 158.525C130.132 158.392 129.841 158.275 129.507 158.175C129.174 158.058 128.799 157.975 128.382 157.925V162.85C128.816 163.117 129.241 163.408 129.657 163.725C130.091 164.025 130.474 164.383 130.807 164.8C131.157 165.217 131.441 165.692 131.657 166.225C131.874 166.758 131.982 167.383 131.982 168.1C131.982 169.533 131.657 170.667 131.007 171.5C130.357 172.333 129.482 172.883 128.382 173.15V175.5H126.007V173.325ZM127.357 170.6C127.891 170.5 128.291 170.258 128.557 169.875C128.824 169.475 128.957 168.992 128.957 168.425C128.957 167.858 128.807 167.392 128.507 167.025C128.207 166.642 127.824 166.292 127.357 165.975V170.6ZM127.057 157.875C126.457 157.942 126.041 158.158 125.807 158.525C125.591 158.875 125.482 159.258 125.482 159.675C125.482 160.192 125.632 160.633 125.932 161C126.232 161.35 126.607 161.683 127.057 162V157.875ZM136.521 170.35H139.371V160.525L139.696 158.825L138.671 160.3L137.021 161.575L135.646 159.9L140.471 155.2H142.221V170.35H145.021V173H136.521V170.35ZM152.109 170.625C153.009 170.625 153.693 170.333 154.159 169.75C154.626 169.167 154.859 168.417 154.859 167.5C154.859 166.45 154.584 165.692 154.034 165.225C153.484 164.758 152.693 164.525 151.659 164.525L150.034 164.625V155.5H157.309V158.4H152.584V161.975L153.409 161.875C154.759 161.925 155.834 162.425 156.634 163.375C157.434 164.325 157.834 165.658 157.834 167.375C157.834 168.358 157.693 169.225 157.409 169.975C157.126 170.725 156.734 171.35 156.234 171.85C155.751 172.35 155.168 172.725 154.484 172.975C153.801 173.225 153.059 173.35 152.259 173.35C151.659 173.35 151.051 173.283 150.434 173.15C149.834 173.033 149.343 172.875 148.959 172.675L149.734 170.15C150.351 170.467 151.143 170.625 152.109 170.625ZM161.598 164.225C161.598 162.592 161.706 161.2 161.923 160.05C162.156 158.9 162.489 157.967 162.923 157.25C163.356 156.517 163.889 155.983 164.523 155.65C165.156 155.317 165.881 155.15 166.698 155.15C167.564 155.15 168.314 155.317 168.948 155.65C169.598 155.983 170.131 156.517 170.548 157.25C170.981 157.967 171.298 158.9 171.498 160.05C171.714 161.2 171.823 162.592 171.823 164.225C171.823 165.875 171.706 167.283 171.473 168.45C171.239 169.6 170.906 170.542 170.473 171.275C170.039 171.992 169.506 172.517 168.873 172.85C168.239 173.183 167.514 173.35 166.698 173.35C165.831 173.35 165.073 173.183 164.423 172.85C163.789 172.5 163.264 171.958 162.848 171.225C162.431 170.475 162.114 169.525 161.898 168.375C161.698 167.225 161.598 165.842 161.598 164.225ZM164.573 164.225C164.573 166.458 164.739 168.1 165.073 169.15C165.406 170.183 165.956 170.7 166.723 170.7C167.089 170.7 167.406 170.583 167.673 170.35C167.956 170.117 168.181 169.742 168.348 169.225C168.514 168.708 168.639 168.042 168.723 167.225C168.806 166.408 168.848 165.408 168.848 164.225C168.848 162.008 168.681 160.383 168.348 159.35C168.031 158.317 167.481 157.8 166.698 157.8C166.314 157.8 165.989 157.917 165.723 158.15C165.456 158.383 165.239 158.758 165.073 159.275C164.906 159.792 164.781 160.458 164.698 161.275C164.614 162.092 164.573 163.075 164.573 164.225ZM181.413 155.675C182.013 155.542 182.671 155.442 183.388 155.375C184.105 155.292 184.821 155.25 185.538 155.25C186.305 155.25 187.055 155.325 187.788 155.475C188.538 155.608 189.205 155.883 189.788 156.3C190.371 156.717 190.846 157.308 191.213 158.075C191.58 158.825 191.763 159.808 191.763 161.025C191.763 162.125 191.605 163.058 191.288 163.825C190.988 164.592 190.58 165.217 190.063 165.7C189.546 166.183 188.946 166.533 188.263 166.75C187.596 166.967 186.905 167.075 186.188 167.075C186.121 167.075 186.013 167.075 185.863 167.075C185.713 167.075 185.555 167.075 185.388 167.075C185.221 167.058 185.055 167.042 184.888 167.025C184.738 167.008 184.63 166.992 184.563 166.975V173H181.413V155.675ZM184.563 164.15C184.663 164.183 184.846 164.217 185.113 164.25C185.396 164.267 185.588 164.275 185.688 164.275C186.055 164.275 186.405 164.225 186.738 164.125C187.071 164.025 187.363 163.858 187.613 163.625C187.88 163.375 188.088 163.042 188.238 162.625C188.388 162.192 188.463 161.65 188.463 161C188.463 160.45 188.388 159.983 188.238 159.6C188.105 159.217 187.913 158.917 187.663 158.7C187.43 158.467 187.155 158.3 186.838 158.2C186.521 158.1 186.188 158.05 185.838 158.05C185.321 158.05 184.896 158.092 184.563 158.175V164.15ZM193.982 164.25C193.982 161.283 194.49 159.025 195.507 157.475C196.524 155.925 198.074 155.15 200.157 155.15C201.24 155.15 202.174 155.367 202.957 155.8C203.74 156.217 204.382 156.825 204.882 157.625C205.382 158.408 205.749 159.367 205.982 160.5C206.232 161.617 206.357 162.867 206.357 164.25C206.357 167.217 205.832 169.475 204.782 171.025C203.749 172.575 202.207 173.35 200.157 173.35C199.057 173.35 198.115 173.142 197.332 172.725C196.565 172.292 195.932 171.683 195.432 170.9C194.932 170.1 194.565 169.142 194.332 168.025C194.099 166.892 193.982 165.633 193.982 164.25ZM197.282 164.25C197.282 165.133 197.332 165.958 197.432 166.725C197.532 167.475 197.699 168.125 197.932 168.675C198.165 169.225 198.457 169.658 198.807 169.975C199.174 170.292 199.624 170.45 200.157 170.45C201.124 170.45 201.849 169.958 202.332 168.975C202.815 167.992 203.057 166.417 203.057 164.25C203.057 163.4 203.007 162.6 202.907 161.85C202.807 161.083 202.64 160.425 202.407 159.875C202.19 159.308 201.899 158.867 201.532 158.55C201.165 158.217 200.707 158.05 200.157 158.05C198.24 158.05 197.282 160.117 197.282 164.25ZM209.45 155.675C210.134 155.525 210.867 155.417 211.65 155.35C212.434 155.283 213.109 155.25 213.675 155.25C214.392 155.25 215.092 155.325 215.775 155.475C216.459 155.608 217.059 155.867 217.575 156.25C218.109 156.617 218.534 157.125 218.85 157.775C219.184 158.408 219.35 159.217 219.35 160.2C219.35 161.617 219.084 162.775 218.55 163.675C218.034 164.558 217.317 165.167 216.4 165.5L217.4 166.3L220.625 173H217L213.95 166.1L212.6 165.775V173H209.45V155.675ZM212.6 163.625H213.675C214.459 163.625 215.05 163.392 215.45 162.925C215.85 162.442 216.05 161.7 216.05 160.7C216.05 159.95 215.884 159.342 215.55 158.875C215.217 158.392 214.692 158.15 213.975 158.15C213.709 158.15 213.45 158.158 213.2 158.175C212.95 158.192 212.75 158.225 212.6 158.275V163.625ZM229.65 155.675C230.334 155.525 231.067 155.417 231.85 155.35C232.634 155.283 233.309 155.25 233.875 155.25C234.592 155.25 235.292 155.325 235.975 155.475C236.659 155.608 237.259 155.867 237.775 156.25C238.309 156.617 238.734 157.125 239.05 157.775C239.384 158.408 239.55 159.217 239.55 160.2C239.55 161.617 239.284 162.775 238.75 163.675C238.234 164.558 237.517 165.167 236.6 165.5L237.6 166.3L240.825 173H237.2L234.15 166.1L232.8 165.775V173H229.65V155.675ZM232.8 163.625H233.875C234.659 163.625 235.25 163.392 235.65 162.925C236.05 162.442 236.25 161.7 236.25 160.7C236.25 159.95 236.084 159.342 235.75 158.875C235.417 158.392 234.892 158.15 234.175 158.15C233.909 158.15 233.65 158.158 233.4 158.175C233.15 158.192 232.95 158.225 232.8 158.275V163.625ZM247.199 173.325C246.399 173.292 245.715 173.192 245.149 173.025C244.582 172.875 244.132 172.692 243.799 172.475L244.624 169.8C244.874 169.983 245.215 170.15 245.649 170.3C246.099 170.45 246.615 170.558 247.199 170.625V165.125C246.765 164.875 246.34 164.6 245.924 164.3C245.507 164 245.132 163.65 244.799 163.25C244.482 162.833 244.215 162.358 243.999 161.825C243.799 161.275 243.699 160.625 243.699 159.875C243.699 158.575 244.015 157.55 244.649 156.8C245.282 156.033 246.132 155.533 247.199 155.3V153H249.574V155.2C250.157 155.233 250.674 155.317 251.124 155.45C251.574 155.567 251.999 155.725 252.399 155.925L251.574 158.525C251.324 158.392 251.032 158.275 250.699 158.175C250.365 158.058 249.99 157.975 249.574 157.925V162.85C250.007 163.117 250.432 163.408 250.849 163.725C251.282 164.025 251.665 164.383 251.999 164.8C252.349 165.217 252.632 165.692 252.849 166.225C253.065 166.758 253.174 167.383 253.174 168.1C253.174 169.533 252.849 170.667 252.199 171.5C251.549 172.333 250.674 172.883 249.574 173.15V175.5H247.199V173.325ZM248.549 170.6C249.082 170.5 249.482 170.258 249.749 169.875C250.015 169.475 250.149 168.992 250.149 168.425C250.149 167.858 249.999 167.392 249.699 167.025C249.399 166.642 249.015 166.292 248.549 165.975V170.6ZM248.249 157.875C247.649 157.942 247.232 158.158 246.999 158.525C246.782 158.875 246.674 159.258 246.674 159.675C246.674 160.192 246.824 160.633 247.124 161C247.424 161.35 247.799 161.683 248.249 162V157.875ZM257.737 173L262.462 159.325L263.362 158.1L262.112 158.35H256.837V155.5H266.312V156.45L260.637 173H257.737ZM273.301 170.625C274.201 170.625 274.884 170.333 275.351 169.75C275.817 169.167 276.051 168.417 276.051 167.5C276.051 166.45 275.776 165.692 275.226 165.225C274.676 164.758 273.884 164.525 272.851 164.525L271.226 164.625V155.5H278.501V158.4H273.776V161.975L274.601 161.875C275.951 161.925 277.026 162.425 277.826 163.375C278.626 164.325 279.026 165.658 279.026 167.375C279.026 168.358 278.884 169.225 278.601 169.975C278.317 170.725 277.926 171.35 277.426 171.85C276.942 172.35 276.359 172.725 275.676 172.975C274.992 173.225 274.251 173.35 273.451 173.35C272.851 173.35 272.242 173.283 271.626 173.15C271.026 173.033 270.534 172.875 270.151 172.675L270.926 170.15C271.542 170.467 272.334 170.625 273.301 170.625Z" fill="white"/>
<path d="M107.334 166.75H173.923V168H107.334V166.75Z" fill="white"/>
</svg>
