<svg width="477" height="289" viewBox="0 0 477 289" fill="none" xmlns="http://www.w3.org/2000/svg">
<path d="M73.7798 95.1111H94.0803C103.471 95.1111 108.982 91.1436 108.982 84.6217V84.513C108.982 79.3499 105.946 76.7411 101.166 75.2194C104.652 73.7519 107.239 71.1432 107.239 66.7409V66.6322C107.239 64.0235 106.283 62.0126 104.709 60.4908C102.403 58.2625 98.9164 57.0668 93.9678 57.0668H73.7798V95.1111ZM84.408 72.2302V65.5452H91.4935C94.7551 65.5452 96.4421 66.7409 96.4421 68.8062V68.9149C96.4421 71.1432 94.5864 72.2302 91.2686 72.2302H84.408ZM84.408 86.6326V79.6216H92.7307C96.3859 79.6216 98.0729 80.9803 98.0729 83.0456V83.1543C98.0729 85.3826 96.161 86.6326 92.8432 86.6326H84.408Z" fill="#2C2C2C"/>
<path d="M113.978 95.1111H143.951V85.8717H124.888V57.0668H113.978V95.1111Z" fill="#2C2C2C"/>
<path d="M145.481 95.1111H156.953L159.765 88.3175H174.948L177.816 95.1111H189.513L172.755 56.795H162.239L145.481 95.1111ZM162.97 80.1108L167.413 69.2953L171.799 80.1108H162.97Z" fill="#2C2C2C"/>
<path d="M209.757 95.872C218.473 95.872 223.478 92.2306 227.19 87.2848L218.979 81.6325C216.618 84.4043 214.199 86.2522 210.094 86.2522C204.583 86.2522 200.703 81.7956 200.703 76.0889V75.9802C200.703 70.4366 204.583 65.9257 210.094 65.9257C213.862 65.9257 216.449 67.6648 218.698 70.3823L226.908 64.2409C223.422 59.5668 218.248 56.3059 210.207 56.3059C198.285 56.3059 189.456 65.0017 189.456 76.0889V76.1976C189.456 87.5566 198.51 95.872 209.757 95.872Z" fill="#2C2C2C"/>
<path d="M231.883 95.1111H242.793V85.2739L246.785 80.9803L256.683 95.1111H269.785L254.377 73.4258L269.279 57.0668H256.345L242.793 72.5019V57.0668H231.883V95.1111Z" fill="#2C2C2C"/>
<path d="M73.7798 135.873H84.6892V122.286H103.303V113.535H84.6892V107.068H105.271V97.8285H73.7798V135.873Z" fill="#2C2C2C"/>
<path d="M110.244 135.873H121.154V124.351H125.933L133.862 135.873H146.459L137.068 122.612C141.96 120.601 145.166 116.742 145.166 110.927V110.818C145.166 107.068 143.985 104.133 141.679 101.959C139.036 99.3503 134.875 97.8285 128.858 97.8285H110.244V135.873ZM121.154 116.09V106.959H128.295C131.95 106.959 134.2 108.481 134.2 111.47V111.579C134.2 114.351 132.063 116.09 128.351 116.09H121.154Z" fill="#2C2C2C"/>
<path d="M150.887 135.873H161.853V97.8285H150.887V135.873Z" fill="#2C2C2C"/>
<path d="M169.059 135.873H184.018C198.189 135.873 206.455 127.72 206.455 116.742V116.633C206.455 105.655 198.301 97.8285 184.243 97.8285H169.059V135.873ZM179.969 126.525V107.177H184.411C190.934 107.177 195.264 110.709 195.264 116.796V116.905C195.264 123.046 190.934 126.525 184.411 126.525H179.969Z" fill="#2C2C2C"/>
<path d="M206.109 135.873H217.581L220.392 129.079H235.575L238.443 135.873H250.14L233.382 97.5568H222.867L206.109 135.873ZM223.598 120.872L228.04 110.057L232.426 120.872H223.598Z" fill="#2C2C2C"/>
<path d="M259.113 135.873H270.079V121.47L285.037 97.8285H272.835L264.681 111.688L256.583 97.8285H244.155L259.113 121.633V135.873Z" fill="#2C2C2C"/>
<path d="M40.47 79.751C40.5051 80.5984 39.8738 81.3102 39.0322 81.378L1.71973 83.1406C0.878095 83.1745 0.176733 82.5304 0.106597 81.683L0.00139269 79.3442C-0.0336754 78.4968 0.59755 77.785 1.43918 77.7172L38.7516 75.9546C39.5933 75.9208 40.2946 76.5648 40.3648 77.4122L40.47 79.751Z" fill="#59B98A"/>
<path d="M71.3651 0.00127849C72.2067 -0.0326141 72.9081 0.611345 72.9782 1.45866L74.8719 39.215C74.907 40.0623 74.2757 40.7741 73.4341 40.8419L71.1547 40.9435C70.313 40.9774 69.6117 40.3335 69.5416 39.4862L67.6479 1.7298C67.6128 0.882486 68.244 0.170742 69.0857 0.102956L71.3651 0.00127849Z" fill="#59B98A"/>
<path d="M15.1505 21.0151C15.8168 20.2694 16.9039 20.1678 17.5702 20.7778L46.6767 47.9254C47.343 48.5355 47.3079 49.6201 46.6416 50.3657L44.8181 52.3653C44.1518 53.1109 43.0647 53.2126 42.3984 52.6026L13.2919 25.4549C12.6256 24.8449 12.6606 23.7603 13.3269 23.0147L15.1505 21.0151Z" fill="#59B98A"/>
<path d="M46.8616 168.332C46.8616 168.332 50.8602 205.611 98.738 206.829H239.776" stroke="#379FDD" stroke-width="6" stroke-miterlimit="10"/>
<path d="M317.879 58.1238C317.879 58.1238 307.553 21.5349 260.875 20.3809L123.403 20.5506" stroke="#379FDD" stroke-width="6" stroke-miterlimit="10"/>
<path d="M417.069 216.167C417.069 225.585 409.178 233.249 399.4 233.249H319.926C310.184 233.249 302.258 225.619 302.258 216.167V139.367C302.258 129.949 310.149 122.286 319.926 122.286H399.366C409.108 122.286 417.034 129.915 417.034 139.367V216.167H417.069Z" fill="#2D2D2D"/>
<path d="M423.318 221.813C423.318 231.068 415.559 238.533 406.018 238.533H328.15C318.574 238.533 310.85 231.034 310.85 221.813V146.555C310.85 137.299 318.609 129.834 328.15 129.834H405.983C415.559 129.834 423.283 137.333 423.283 146.555V221.813H423.318Z" stroke="#EFCB37" stroke-width="5" stroke-miterlimit="10"/>
<path d="M443.21 225.224C443.175 224.513 443.701 223.936 444.402 223.902L475.122 222.682C475.823 222.648 476.385 223.191 476.42 223.902L476.49 225.801C476.525 226.512 475.999 227.089 475.297 227.122L444.578 228.343C443.876 228.377 443.315 227.834 443.28 227.122L443.21 225.224Z" fill="#59B98A"/>
<path d="M415.015 288.976C414.314 289.01 413.753 288.468 413.718 287.756L412.385 256.643C412.35 255.931 412.876 255.355 413.578 255.321L415.471 255.253C416.173 255.219 416.734 255.761 416.769 256.473L418.101 287.586C418.136 288.298 417.61 288.874 416.909 288.908L415.015 288.976Z" fill="#59B98A"/>
<path d="M459.376 273.487C458.815 274.097 457.938 274.165 457.412 273.657L433.636 251.118C433.11 250.61 433.11 249.695 433.671 249.119L435.179 247.492C435.74 246.882 436.617 246.814 437.143 247.322L460.919 269.861C461.445 270.369 461.445 271.284 460.884 271.86L459.376 273.487Z" fill="#59B98A"/>
<path d="M345.071 189.938C354.631 189.938 361.323 184.709 361.323 175.936V175.824C361.323 167.276 354.912 163.34 347.827 163.34C345.184 163.34 343.328 163.902 341.528 164.746L341.866 158.785H359.579V149.787H333.262L332.137 169.75L338.604 173.349C340.46 172.225 342.484 171.381 344.902 171.381C348.333 171.381 350.694 173.124 350.694 175.936V176.049C350.694 178.86 348.501 180.66 344.902 180.66C341.585 180.66 338.548 179.085 335.343 176.386L329.101 183.696C333.206 187.52 338.098 189.938 345.071 189.938Z" fill="#EFCB37"/>
<path d="M383.922 189.938C395.169 189.938 402.198 180.604 402.198 169.469V169.357C402.198 158.222 395.225 149 384.035 149C372.844 149 365.759 158.335 365.759 169.469V169.582C365.759 180.716 372.675 189.938 383.922 189.938ZM384.035 180.266C379.648 180.266 376.724 175.767 376.724 169.469V169.357C376.724 163.059 379.592 158.672 383.922 158.672C388.252 158.672 391.233 163.227 391.233 169.469V169.582C391.233 175.824 388.421 180.266 384.035 180.266Z" fill="#EFCB37"/>
<path d="M329.586 202.321C329.586 201.407 329.718 200.625 329.982 199.975C330.246 199.326 330.611 198.788 331.078 198.361C331.545 197.935 332.104 197.63 332.753 197.447C333.424 197.244 334.144 197.143 334.916 197.143C335.688 197.143 336.399 197.234 337.048 197.417C337.698 197.6 338.257 197.894 338.724 198.3C339.211 198.706 339.587 199.244 339.851 199.915C340.115 200.564 340.257 201.366 340.277 202.321C340.257 203.275 340.115 204.088 339.851 204.758C339.587 205.408 339.211 205.935 338.724 206.342C338.257 206.748 337.698 207.042 337.048 207.225C336.399 207.408 335.688 207.499 334.916 207.499C334.144 207.499 333.424 207.408 332.753 207.225C332.104 207.042 331.545 206.748 331.078 206.342C330.611 205.935 330.246 205.408 329.982 204.758C329.718 204.088 329.586 203.275 329.586 202.321ZM333.119 202.321C333.119 204.067 333.718 204.94 334.916 204.94C335.546 204.94 335.992 204.758 336.256 204.392C336.541 204.006 336.693 203.316 336.713 202.321C336.693 201.346 336.541 200.666 336.256 200.28C335.992 199.894 335.546 199.701 334.916 199.701C334.287 199.701 333.83 199.894 333.545 200.28C333.261 200.666 333.119 201.346 333.119 202.321ZM341.952 213.591C341.952 212.677 342.084 211.896 342.348 211.246C342.612 210.596 342.978 210.058 343.445 209.631C343.912 209.205 344.47 208.9 345.12 208.718C345.79 208.514 346.511 208.413 347.283 208.413C348.055 208.413 348.765 208.504 349.415 208.687C350.065 208.87 350.623 209.164 351.09 209.57C351.578 209.977 351.954 210.515 352.217 211.185C352.481 211.835 352.624 212.637 352.644 213.591C352.624 214.546 352.481 215.358 352.217 216.028C351.954 216.678 351.578 217.206 351.09 217.612C350.623 218.018 350.065 218.312 349.415 218.495C348.765 218.678 348.055 218.769 347.283 218.769C346.511 218.769 345.79 218.678 345.12 218.495C344.47 218.312 343.912 218.018 343.445 217.612C342.978 217.206 342.612 216.678 342.348 216.028C342.084 215.358 341.952 214.546 341.952 213.591ZM345.486 213.591C345.486 215.338 346.085 216.211 347.283 216.211C347.912 216.211 348.359 216.028 348.623 215.662C348.907 215.277 349.06 214.586 349.08 213.591C349.06 212.616 348.907 211.936 348.623 211.55C348.359 211.164 347.912 210.972 347.283 210.972C346.653 210.972 346.197 211.164 345.912 211.55C345.628 211.936 345.486 212.616 345.486 213.591ZM348.654 197.082L350.877 199.092L333.332 219.257L331.109 217.155L348.654 197.082Z" fill="#EFCB37"/>
<path d="M354.771 208.169C354.771 204.616 355.553 201.884 357.117 199.975C358.68 198.046 360.914 197.082 363.818 197.082C365.341 197.082 366.671 197.346 367.808 197.874C368.946 198.402 369.89 199.153 370.641 200.128C371.392 201.102 371.951 202.27 372.316 203.631C372.682 204.991 372.865 206.504 372.865 208.169C372.865 211.723 372.073 214.464 370.489 216.393C368.925 218.302 366.702 219.257 363.818 219.257C362.275 219.257 360.934 218.993 359.797 218.465C358.66 217.937 357.716 217.185 356.965 216.211C356.233 215.236 355.685 214.068 355.32 212.708C354.954 211.347 354.771 209.834 354.771 208.169ZM359.158 208.169C359.158 209.245 359.249 210.241 359.432 211.154C359.615 212.048 359.889 212.819 360.254 213.469C360.64 214.119 361.127 214.627 361.716 214.992C362.305 215.358 363.006 215.541 363.818 215.541C365.3 215.541 366.448 214.962 367.26 213.804C368.072 212.647 368.478 210.769 368.478 208.169C368.478 207.134 368.387 206.169 368.204 205.276C368.042 204.382 367.778 203.6 367.412 202.93C367.047 202.26 366.57 201.742 365.981 201.377C365.392 200.991 364.671 200.798 363.818 200.798C362.336 200.798 361.188 201.397 360.376 202.595C359.564 203.773 359.158 205.631 359.158 208.169Z" fill="#EFCB37"/>
<path d="M375.847 197.508H388.488V201.224H380.02V206.494H387.818V210.21H380.02V218.83H375.847V197.508Z" fill="#EFCB37"/>
<path d="M391.315 197.508H403.956V201.224H395.489V206.494H403.286V210.21H395.489V218.83H391.315V197.508Z" fill="#EFCB37"/>
<path d="M76.4609 163.5C76.7609 163.45 77.0943 163.417 77.4609 163.4C77.8443 163.367 78.2276 163.342 78.6109 163.325C79.0109 163.292 79.3943 163.275 79.7609 163.275C80.1276 163.258 80.4526 163.25 80.7359 163.25C82.1193 163.25 83.2693 163.467 84.1859 163.9C85.1193 164.317 85.8609 164.917 86.4109 165.7C86.9776 166.467 87.3776 167.392 87.6109 168.475C87.8443 169.558 87.9609 170.767 87.9609 172.1C87.9609 173.317 87.8443 174.483 87.6109 175.6C87.3943 176.7 87.0026 177.675 86.4359 178.525C85.8693 179.358 85.1026 180.025 84.1359 180.525C83.1693 181.025 81.9526 181.275 80.4859 181.275C80.2693 181.275 79.9776 181.267 79.6109 181.25C79.2443 181.233 78.8609 181.208 78.4609 181.175C78.0609 181.158 77.6776 181.133 77.3109 181.1C76.9443 181.083 76.6609 181.058 76.4609 181.025V163.5ZM81.0609 166.15C80.7943 166.15 80.5193 166.158 80.2359 166.175C79.9693 166.175 79.7609 166.192 79.6109 166.225V178.275C79.6609 178.292 79.7443 178.308 79.8609 178.325C79.9943 178.325 80.1276 178.333 80.2609 178.35C80.4109 178.35 80.5443 178.358 80.6609 178.375C80.7943 178.375 80.8859 178.375 80.9359 178.375C81.6859 178.375 82.3026 178.2 82.7859 177.85C83.2693 177.5 83.6443 177.033 83.9109 176.45C84.1943 175.867 84.3859 175.2 84.4859 174.45C84.6026 173.683 84.6609 172.883 84.6609 172.05C84.6609 171.283 84.6109 170.542 84.5109 169.825C84.4276 169.108 84.2526 168.483 83.9859 167.95C83.7359 167.4 83.3693 166.967 82.8859 166.65C82.4193 166.317 81.8109 166.15 81.0609 166.15ZM91.0898 163.5H99.8398V166.4H94.2398V170.7H99.3148V173.6H94.2398V178.1H99.9398V181H91.0898V163.5ZM109.459 163.675C110.142 163.525 110.876 163.417 111.659 163.35C112.442 163.283 113.117 163.25 113.684 163.25C114.401 163.25 115.101 163.325 115.784 163.475C116.467 163.608 117.067 163.867 117.584 164.25C118.117 164.617 118.542 165.125 118.859 165.775C119.192 166.408 119.359 167.217 119.359 168.2C119.359 169.617 119.092 170.775 118.559 171.675C118.042 172.558 117.326 173.167 116.409 173.5L117.409 174.3L120.634 181H117.009L113.959 174.1L112.609 173.775V181H109.459V163.675ZM112.609 171.625H113.684C114.467 171.625 115.059 171.392 115.459 170.925C115.859 170.442 116.059 169.7 116.059 168.7C116.059 167.95 115.892 167.342 115.559 166.875C115.226 166.392 114.701 166.15 113.984 166.15C113.717 166.15 113.459 166.158 113.209 166.175C112.959 166.192 112.759 166.225 112.609 166.275V171.625ZM127.007 181.325C126.207 181.292 125.524 181.192 124.957 181.025C124.391 180.875 123.941 180.692 123.607 180.475L124.432 177.8C124.682 177.983 125.024 178.15 125.457 178.3C125.907 178.45 126.424 178.558 127.007 178.625V173.125C126.574 172.875 126.149 172.6 125.732 172.3C125.316 172 124.941 171.65 124.607 171.25C124.291 170.833 124.024 170.358 123.807 169.825C123.607 169.275 123.507 168.625 123.507 167.875C123.507 166.575 123.824 165.55 124.457 164.8C125.091 164.033 125.941 163.533 127.007 163.3V161H129.382V163.2C129.966 163.233 130.482 163.317 130.932 163.45C131.382 163.567 131.807 163.725 132.207 163.925L131.382 166.525C131.132 166.392 130.841 166.275 130.507 166.175C130.174 166.058 129.799 165.975 129.382 165.925V170.85C129.816 171.117 130.241 171.408 130.657 171.725C131.091 172.025 131.474 172.383 131.807 172.8C132.157 173.217 132.441 173.692 132.657 174.225C132.874 174.758 132.982 175.383 132.982 176.1C132.982 177.533 132.657 178.667 132.007 179.5C131.357 180.333 130.482 180.883 129.382 181.15V183.5H127.007V181.325ZM128.357 178.6C128.891 178.5 129.291 178.258 129.557 177.875C129.824 177.475 129.957 176.992 129.957 176.425C129.957 175.858 129.807 175.392 129.507 175.025C129.207 174.642 128.824 174.292 128.357 173.975V178.6ZM128.057 165.875C127.457 165.942 127.041 166.158 126.807 166.525C126.591 166.875 126.482 167.258 126.482 167.675C126.482 168.192 126.632 168.633 126.932 169C127.232 169.35 127.607 169.683 128.057 170V165.875ZM137.521 178.35H140.371V168.525L140.696 166.825L139.671 168.3L138.021 169.575L136.646 167.9L141.471 163.2H143.221V178.35H146.021V181H137.521V178.35ZM149.459 168.975C149.459 167.208 149.876 165.8 150.709 164.75C151.559 163.683 152.776 163.15 154.359 163.15C155.909 163.15 157.143 163.7 158.059 164.8C158.993 165.9 159.459 167.55 159.459 169.75C159.459 171.683 159.251 173.358 158.834 174.775C158.418 176.175 157.859 177.342 157.159 178.275C156.459 179.208 155.651 179.925 154.734 180.425C153.818 180.925 152.868 181.233 151.884 181.35L151.184 178.85C152.684 178.55 153.851 177.9 154.684 176.9C155.518 175.883 156.051 174.658 156.284 173.225C155.968 173.642 155.626 173.933 155.259 174.1C154.893 174.267 154.418 174.35 153.834 174.35C153.318 174.35 152.793 174.25 152.259 174.05C151.743 173.833 151.276 173.508 150.859 173.075C150.443 172.625 150.101 172.067 149.834 171.4C149.584 170.717 149.459 169.908 149.459 168.975ZM152.334 168.8C152.334 169.75 152.534 170.475 152.934 170.975C153.351 171.458 153.876 171.7 154.509 171.7C154.993 171.7 155.401 171.617 155.734 171.45C156.068 171.267 156.326 171.017 156.509 170.7C156.543 170.517 156.559 170.325 156.559 170.125C156.576 169.925 156.584 169.733 156.584 169.55C156.584 169.033 156.543 168.55 156.459 168.1C156.376 167.633 156.243 167.233 156.059 166.9C155.876 166.567 155.643 166.3 155.359 166.1C155.076 165.9 154.734 165.8 154.334 165.8C153.701 165.8 153.209 166.067 152.859 166.6C152.509 167.133 152.334 167.867 152.334 168.8ZM163.923 181L168.648 167.325L169.548 166.1L168.298 166.35H163.023V163.5H172.498V164.45L166.823 181H163.923ZM182.413 163.675C183.013 163.542 183.671 163.442 184.388 163.375C185.105 163.292 185.821 163.25 186.538 163.25C187.305 163.25 188.055 163.325 188.788 163.475C189.538 163.608 190.205 163.883 190.788 164.3C191.371 164.717 191.846 165.308 192.213 166.075C192.58 166.825 192.763 167.808 192.763 169.025C192.763 170.125 192.605 171.058 192.288 171.825C191.988 172.592 191.58 173.217 191.063 173.7C190.546 174.183 189.946 174.533 189.263 174.75C188.596 174.967 187.905 175.075 187.188 175.075C187.121 175.075 187.013 175.075 186.863 175.075C186.713 175.075 186.555 175.075 186.388 175.075C186.221 175.058 186.055 175.042 185.888 175.025C185.738 175.008 185.63 174.992 185.563 174.975V181H182.413V163.675ZM185.563 172.15C185.663 172.183 185.846 172.217 186.113 172.25C186.396 172.267 186.588 172.275 186.688 172.275C187.055 172.275 187.405 172.225 187.738 172.125C188.071 172.025 188.363 171.858 188.613 171.625C188.88 171.375 189.088 171.042 189.238 170.625C189.388 170.192 189.463 169.65 189.463 169C189.463 168.45 189.388 167.983 189.238 167.6C189.105 167.217 188.913 166.917 188.663 166.7C188.43 166.467 188.155 166.3 187.838 166.2C187.521 166.1 187.188 166.05 186.838 166.05C186.321 166.05 185.896 166.092 185.563 166.175V172.15ZM194.982 172.25C194.982 169.283 195.49 167.025 196.507 165.475C197.524 163.925 199.074 163.15 201.157 163.15C202.24 163.15 203.174 163.367 203.957 163.8C204.74 164.217 205.382 164.825 205.882 165.625C206.382 166.408 206.749 167.367 206.982 168.5C207.232 169.617 207.357 170.867 207.357 172.25C207.357 175.217 206.832 177.475 205.782 179.025C204.749 180.575 203.207 181.35 201.157 181.35C200.057 181.35 199.115 181.142 198.332 180.725C197.565 180.292 196.932 179.683 196.432 178.9C195.932 178.1 195.565 177.142 195.332 176.025C195.099 174.892 194.982 173.633 194.982 172.25ZM198.282 172.25C198.282 173.133 198.332 173.958 198.432 174.725C198.532 175.475 198.699 176.125 198.932 176.675C199.165 177.225 199.457 177.658 199.807 177.975C200.174 178.292 200.624 178.45 201.157 178.45C202.124 178.45 202.849 177.958 203.332 176.975C203.815 175.992 204.057 174.417 204.057 172.25C204.057 171.4 204.007 170.6 203.907 169.85C203.807 169.083 203.64 168.425 203.407 167.875C203.19 167.308 202.899 166.867 202.532 166.55C202.165 166.217 201.707 166.05 201.157 166.05C199.24 166.05 198.282 168.117 198.282 172.25ZM210.45 163.675C211.134 163.525 211.867 163.417 212.65 163.35C213.434 163.283 214.109 163.25 214.675 163.25C215.392 163.25 216.092 163.325 216.775 163.475C217.459 163.608 218.059 163.867 218.575 164.25C219.109 164.617 219.534 165.125 219.85 165.775C220.184 166.408 220.35 167.217 220.35 168.2C220.35 169.617 220.084 170.775 219.55 171.675C219.034 172.558 218.317 173.167 217.4 173.5L218.4 174.3L221.625 181H218L214.95 174.1L213.6 173.775V181H210.45V163.675ZM213.6 171.625H214.675C215.459 171.625 216.05 171.392 216.45 170.925C216.85 170.442 217.05 169.7 217.05 168.7C217.05 167.95 216.884 167.342 216.55 166.875C216.217 166.392 215.692 166.15 214.975 166.15C214.709 166.15 214.45 166.158 214.2 166.175C213.95 166.192 213.75 166.225 213.6 166.275V171.625ZM230.65 163.675C231.334 163.525 232.067 163.417 232.85 163.35C233.634 163.283 234.309 163.25 234.875 163.25C235.592 163.25 236.292 163.325 236.975 163.475C237.659 163.608 238.259 163.867 238.775 164.25C239.309 164.617 239.734 165.125 240.05 165.775C240.384 166.408 240.55 167.217 240.55 168.2C240.55 169.617 240.284 170.775 239.75 171.675C239.234 172.558 238.517 173.167 237.6 173.5L238.6 174.3L241.825 181H238.2L235.15 174.1L233.8 173.775V181H230.65V163.675ZM233.8 171.625H234.875C235.659 171.625 236.25 171.392 236.65 170.925C237.05 170.442 237.25 169.7 237.25 168.7C237.25 167.95 237.084 167.342 236.75 166.875C236.417 166.392 235.892 166.15 235.175 166.15C234.909 166.15 234.65 166.158 234.4 166.175C234.15 166.192 233.95 166.225 233.8 166.275V171.625ZM248.199 181.325C247.399 181.292 246.715 181.192 246.149 181.025C245.582 180.875 245.132 180.692 244.799 180.475L245.624 177.8C245.874 177.983 246.215 178.15 246.649 178.3C247.099 178.45 247.615 178.558 248.199 178.625V173.125C247.765 172.875 247.34 172.6 246.924 172.3C246.507 172 246.132 171.65 245.799 171.25C245.482 170.833 245.215 170.358 244.999 169.825C244.799 169.275 244.699 168.625 244.699 167.875C244.699 166.575 245.015 165.55 245.649 164.8C246.282 164.033 247.132 163.533 248.199 163.3V161H250.574V163.2C251.157 163.233 251.674 163.317 252.124 163.45C252.574 163.567 252.999 163.725 253.399 163.925L252.574 166.525C252.324 166.392 252.032 166.275 251.699 166.175C251.365 166.058 250.99 165.975 250.574 165.925V170.85C251.007 171.117 251.432 171.408 251.849 171.725C252.282 172.025 252.665 172.383 252.999 172.8C253.349 173.217 253.632 173.692 253.849 174.225C254.065 174.758 254.174 175.383 254.174 176.1C254.174 177.533 253.849 178.667 253.199 179.5C252.549 180.333 251.674 180.883 250.574 181.15V183.5H248.199V181.325ZM249.549 178.6C250.082 178.5 250.482 178.258 250.749 177.875C251.015 177.475 251.149 176.992 251.149 176.425C251.149 175.858 250.999 175.392 250.699 175.025C250.399 174.642 250.015 174.292 249.549 173.975V178.6ZM249.249 165.875C248.649 165.942 248.232 166.158 247.999 166.525C247.782 166.875 247.674 167.258 247.674 167.675C247.674 168.192 247.824 168.633 248.124 169C248.424 169.35 248.799 169.683 249.249 170V165.875ZM257.462 168.975C257.462 167.208 257.879 165.8 258.712 164.75C259.562 163.683 260.779 163.15 262.362 163.15C263.912 163.15 265.145 163.7 266.062 164.8C266.995 165.9 267.462 167.55 267.462 169.75C267.462 171.683 267.254 173.358 266.837 174.775C266.42 176.175 265.862 177.342 265.162 178.275C264.462 179.208 263.654 179.925 262.737 180.425C261.82 180.925 260.87 181.233 259.887 181.35L259.187 178.85C260.687 178.55 261.854 177.9 262.687 176.9C263.52 175.883 264.054 174.658 264.287 173.225C263.97 173.642 263.629 173.933 263.262 174.1C262.895 174.267 262.42 174.35 261.837 174.35C261.32 174.35 260.795 174.25 260.262 174.05C259.745 173.833 259.279 173.508 258.862 173.075C258.445 172.625 258.104 172.067 257.837 171.4C257.587 170.717 257.462 169.908 257.462 168.975ZM260.337 168.8C260.337 169.75 260.537 170.475 260.937 170.975C261.354 171.458 261.879 171.7 262.512 171.7C262.995 171.7 263.404 171.617 263.737 171.45C264.07 171.267 264.329 171.017 264.512 170.7C264.545 170.517 264.562 170.325 264.562 170.125C264.579 169.925 264.587 169.733 264.587 169.55C264.587 169.033 264.545 168.55 264.462 168.1C264.379 167.633 264.245 167.233 264.062 166.9C263.879 166.567 263.645 166.3 263.362 166.1C263.079 165.9 262.737 165.8 262.337 165.8C261.704 165.8 261.212 166.067 260.862 166.6C260.512 167.133 260.337 167.867 260.337 168.8ZM271.926 181L276.651 167.325L277.551 166.1L276.301 166.35H271.026V163.5H280.501V164.45L274.826 181H271.926Z" fill="#379FDD"/>
<path d="M108.334 174.75H174.923V176H108.334V174.75Z" fill="#379FDD"/>
</svg>
