<svg width="477" height="289" viewBox="0 0 477 289" fill="none" xmlns="http://www.w3.org/2000/svg">
<path d="M73.7798 95.1111H94.0803C103.471 95.1111 108.982 91.1436 108.982 84.6217V84.513C108.982 79.3499 105.946 76.7411 101.166 75.2194C104.652 73.7519 107.239 71.1432 107.239 66.7409V66.6322C107.239 64.0235 106.283 62.0126 104.709 60.4908C102.403 58.2625 98.9164 57.0668 93.9678 57.0668H73.7798V95.1111ZM84.408 72.2302V65.5452H91.4935C94.7551 65.5452 96.4421 66.7409 96.4421 68.8062V68.9149C96.4421 71.1432 94.5864 72.2302 91.2686 72.2302H84.408ZM84.408 86.6326V79.6216H92.7307C96.3859 79.6216 98.0729 80.9803 98.0729 83.0456V83.1543C98.0729 85.3826 96.161 86.6326 92.8432 86.6326H84.408Z" fill="#2C2C2C"/>
<path d="M113.978 95.1111H143.951V85.8718H124.888V57.0668H113.978V95.1111Z" fill="#2C2C2C"/>
<path d="M145.481 95.1111H156.953L159.765 88.3175H174.948L177.816 95.1111H189.513L172.755 56.795H162.239L145.481 95.1111ZM162.97 80.1108L167.413 69.2953L171.799 80.1108H162.97Z" fill="#2C2C2C"/>
<path d="M209.757 95.872C218.473 95.872 223.478 92.2306 227.19 87.2848L218.979 81.6325C216.618 84.4043 214.199 86.2522 210.094 86.2522C204.583 86.2522 200.703 81.7956 200.703 76.0889V75.9802C200.703 70.4366 204.583 65.9257 210.094 65.9257C213.862 65.9257 216.449 67.6648 218.698 70.3823L226.908 64.2409C223.422 59.5668 218.248 56.3059 210.207 56.3059C198.285 56.3059 189.456 65.0017 189.456 76.0889V76.1976C189.456 87.5566 198.51 95.872 209.757 95.872Z" fill="#2C2C2C"/>
<path d="M231.883 95.1111H242.793V85.2739L246.785 80.9803L256.683 95.1111H269.785L254.377 73.4258L269.279 57.0668H256.345L242.793 72.5019V57.0668H231.883V95.1111Z" fill="#2C2C2C"/>
<path d="M73.7798 135.873H84.6892V122.286H103.303V113.535H84.6892V107.068H105.271V97.8285H73.7798V135.873Z" fill="#2C2C2C"/>
<path d="M110.244 135.873H121.154V124.351H125.933L133.862 135.873H146.459L137.068 122.612C141.96 120.601 145.166 116.742 145.166 110.927V110.818C145.166 107.068 143.985 104.133 141.679 101.959C139.036 99.3503 134.875 97.8285 128.858 97.8285H110.244V135.873ZM121.154 116.09V106.959H128.295C131.95 106.959 134.2 108.481 134.2 111.47V111.579C134.2 114.351 132.063 116.09 128.351 116.09H121.154Z" fill="#2C2C2C"/>
<path d="M150.887 135.873H161.853V97.8285H150.887V135.873Z" fill="#2C2C2C"/>
<path d="M169.059 135.873H184.018C198.189 135.873 206.455 127.72 206.455 116.742V116.633C206.455 105.655 198.301 97.8285 184.243 97.8285H169.059V135.873ZM179.969 126.525V107.177H184.411C190.934 107.177 195.264 110.709 195.264 116.796V116.905C195.264 123.046 190.934 126.525 184.411 126.525H179.969Z" fill="#2C2C2C"/>
<path d="M206.109 135.873H217.581L220.392 129.079H235.575L238.443 135.873H250.14L233.382 97.5568H222.867L206.109 135.873ZM223.598 120.872L228.04 110.057L232.426 120.872H223.598Z" fill="#2C2C2C"/>
<path d="M259.113 135.873H270.079V121.47L285.037 97.8285H272.835L264.681 111.688L256.583 97.8285H244.155L259.113 121.633V135.873Z" fill="#2C2C2C"/>
<path d="M40.47 79.751C40.5051 80.5984 39.8738 81.3102 39.0322 81.378L1.71973 83.1406C0.878095 83.1745 0.176733 82.5304 0.106597 81.683L0.00139269 79.3442C-0.0336754 78.4968 0.59755 77.785 1.43918 77.7172L38.7516 75.9546C39.5933 75.9208 40.2946 76.5648 40.3648 77.4122L40.47 79.751Z" fill="#59B98A"/>
<path d="M71.3651 0.00127849C72.2067 -0.0326141 72.9081 0.611345 72.9782 1.45866L74.8719 39.215C74.907 40.0623 74.2757 40.7741 73.4341 40.8419L71.1547 40.9435C70.313 40.9774 69.6117 40.3335 69.5416 39.4862L67.6479 1.7298C67.6128 0.882486 68.244 0.170742 69.0857 0.102956L71.3651 0.00127849Z" fill="#59B98A"/>
<path d="M15.1505 21.0151C15.8168 20.2694 16.9039 20.1678 17.5702 20.7778L46.6767 47.9254C47.343 48.5355 47.3079 49.6201 46.6416 50.3657L44.8181 52.3653C44.1518 53.1109 43.0647 53.2126 42.3984 52.6026L13.2919 25.4549C12.6256 24.8449 12.6606 23.7603 13.3269 23.0147L15.1505 21.0151Z" fill="#59B98A"/>
<path d="M46.8616 168.332C46.8616 168.332 50.8602 205.611 98.738 206.829H239.776" stroke="#379FDD" stroke-width="6" stroke-miterlimit="10"/>
<path d="M317.879 58.1238C317.879 58.1238 307.553 21.5349 260.875 20.3809L123.403 20.5506" stroke="#379FDD" stroke-width="6" stroke-miterlimit="10"/>
<path d="M417.069 216.167C417.069 225.585 409.178 233.249 399.4 233.249H319.926C310.184 233.249 302.258 225.619 302.258 216.167V139.367C302.258 129.949 310.149 122.286 319.926 122.286H399.366C409.108 122.286 417.034 129.915 417.034 139.367V216.167H417.069Z" fill="#2D2D2D"/>
<path d="M423.318 221.813C423.318 231.068 415.559 238.533 406.018 238.533H328.15C318.574 238.533 310.85 231.034 310.85 221.813V146.555C310.85 137.299 318.609 129.834 328.15 129.834H405.983C415.559 129.834 423.283 137.333 423.283 146.555V221.813H423.318Z" stroke="#EFCB37" stroke-width="5" stroke-miterlimit="10"/>
<path d="M443.21 225.224C443.175 224.513 443.701 223.936 444.402 223.902L475.122 222.682C475.823 222.648 476.385 223.191 476.42 223.902L476.49 225.801C476.525 226.512 475.999 227.089 475.297 227.122L444.578 228.343C443.876 228.377 443.315 227.834 443.28 227.122L443.21 225.224Z" fill="#59B98A"/>
<path d="M415.015 288.976C414.314 289.01 413.753 288.468 413.718 287.756L412.385 256.643C412.35 255.931 412.876 255.355 413.578 255.321L415.471 255.253C416.173 255.219 416.734 255.761 416.769 256.473L418.101 287.586C418.136 288.298 417.61 288.874 416.909 288.908L415.015 288.976Z" fill="#59B98A"/>
<path d="M459.376 273.487C458.815 274.097 457.938 274.165 457.412 273.657L433.636 251.118C433.11 250.61 433.11 249.695 433.671 249.119L435.179 247.492C435.74 246.882 436.617 246.814 437.143 247.322L460.919 269.861C461.445 270.369 461.445 271.284 460.884 271.86L459.376 273.487Z" fill="#59B98A"/>
<path d="M345.071 189.938C354.631 189.938 361.323 184.709 361.323 175.936V175.824C361.323 167.276 354.912 163.34 347.827 163.34C345.184 163.34 343.328 163.902 341.528 164.746L341.866 158.785H359.579V149.787H333.262L332.137 169.75L338.604 173.349C340.46 172.225 342.484 171.381 344.902 171.381C348.333 171.381 350.694 173.124 350.694 175.936V176.049C350.694 178.86 348.501 180.66 344.902 180.66C341.585 180.66 338.548 179.085 335.343 176.386L329.101 183.696C333.206 187.52 338.098 189.938 345.071 189.938Z" fill="#EFCB37"/>
<path d="M383.922 189.938C395.169 189.938 402.198 180.604 402.198 169.469V169.357C402.198 158.222 395.225 149 384.035 149C372.844 149 365.759 158.335 365.759 169.469V169.582C365.759 180.716 372.675 189.938 383.922 189.938ZM384.035 180.266C379.648 180.266 376.724 175.767 376.724 169.469V169.357C376.724 163.059 379.592 158.672 383.922 158.672C388.252 158.672 391.233 163.227 391.233 169.469V169.582C391.233 175.824 388.421 180.266 384.035 180.266Z" fill="#EFCB37"/>
<path d="M329.586 202.321C329.586 201.407 329.718 200.625 329.982 199.975C330.246 199.326 330.611 198.788 331.078 198.361C331.545 197.935 332.104 197.63 332.753 197.447C333.424 197.244 334.144 197.143 334.916 197.143C335.688 197.143 336.399 197.234 337.048 197.417C337.698 197.6 338.257 197.894 338.724 198.3C339.211 198.706 339.587 199.244 339.851 199.915C340.115 200.564 340.257 201.366 340.277 202.321C340.257 203.275 340.115 204.088 339.851 204.758C339.587 205.408 339.211 205.935 338.724 206.342C338.257 206.748 337.698 207.042 337.048 207.225C336.399 207.408 335.688 207.499 334.916 207.499C334.144 207.499 333.424 207.408 332.753 207.225C332.104 207.042 331.545 206.748 331.078 206.342C330.611 205.935 330.246 205.408 329.982 204.758C329.718 204.088 329.586 203.275 329.586 202.321ZM333.119 202.321C333.119 204.067 333.718 204.94 334.916 204.94C335.546 204.94 335.992 204.758 336.256 204.392C336.541 204.006 336.693 203.316 336.713 202.321C336.693 201.346 336.541 200.666 336.256 200.28C335.992 199.894 335.546 199.701 334.916 199.701C334.287 199.701 333.83 199.894 333.545 200.28C333.261 200.666 333.119 201.346 333.119 202.321ZM341.952 213.591C341.952 212.677 342.084 211.896 342.348 211.246C342.612 210.596 342.978 210.058 343.445 209.631C343.912 209.205 344.47 208.9 345.12 208.718C345.79 208.514 346.511 208.413 347.283 208.413C348.055 208.413 348.765 208.504 349.415 208.687C350.065 208.87 350.623 209.164 351.09 209.57C351.578 209.977 351.954 210.515 352.217 211.185C352.481 211.835 352.624 212.637 352.644 213.591C352.624 214.546 352.481 215.358 352.217 216.028C351.954 216.678 351.578 217.206 351.09 217.612C350.623 218.018 350.065 218.312 349.415 218.495C348.765 218.678 348.055 218.769 347.283 218.769C346.511 218.769 345.79 218.678 345.12 218.495C344.47 218.312 343.912 218.018 343.445 217.612C342.978 217.206 342.612 216.678 342.348 216.028C342.084 215.358 341.952 214.546 341.952 213.591ZM345.486 213.591C345.486 215.338 346.085 216.211 347.283 216.211C347.912 216.211 348.359 216.028 348.623 215.662C348.907 215.277 349.06 214.586 349.08 213.591C349.06 212.616 348.907 211.936 348.623 211.55C348.359 211.164 347.912 210.972 347.283 210.972C346.653 210.972 346.197 211.164 345.912 211.55C345.628 211.936 345.486 212.616 345.486 213.591ZM348.654 197.082L350.877 199.092L333.332 219.257L331.109 217.155L348.654 197.082Z" fill="#EFCB37"/>
<path d="M354.771 208.169C354.771 204.616 355.553 201.884 357.117 199.975C358.68 198.046 360.914 197.082 363.818 197.082C365.341 197.082 366.671 197.346 367.808 197.874C368.946 198.402 369.89 199.153 370.641 200.128C371.392 201.102 371.951 202.27 372.316 203.631C372.682 204.991 372.865 206.504 372.865 208.169C372.865 211.723 372.073 214.464 370.489 216.393C368.925 218.302 366.702 219.257 363.818 219.257C362.275 219.257 360.934 218.993 359.797 218.465C358.66 217.937 357.716 217.185 356.965 216.211C356.233 215.236 355.685 214.068 355.32 212.708C354.954 211.347 354.771 209.834 354.771 208.169ZM359.158 208.169C359.158 209.245 359.249 210.241 359.432 211.154C359.615 212.048 359.889 212.819 360.254 213.469C360.64 214.119 361.127 214.627 361.716 214.992C362.305 215.358 363.006 215.541 363.818 215.541C365.3 215.541 366.448 214.962 367.26 213.804C368.072 212.647 368.478 210.769 368.478 208.169C368.478 207.134 368.387 206.169 368.204 205.276C368.042 204.382 367.778 203.6 367.412 202.93C367.047 202.26 366.57 201.742 365.981 201.377C365.392 200.991 364.671 200.798 363.818 200.798C362.336 200.798 361.188 201.397 360.376 202.595C359.564 203.773 359.158 205.631 359.158 208.169Z" fill="#EFCB37"/>
<path d="M375.847 197.508H388.488V201.224H380.02V206.494H387.818V210.21H380.02V218.83H375.847V197.508Z" fill="#EFCB37"/>
<path d="M391.315 197.508H403.956V201.224H395.489V206.494H403.286V210.21H395.489V218.83H391.315V197.508Z" fill="#EFCB37"/>
<path d="M76.4609 162.5C76.7609 162.45 77.0943 162.417 77.4609 162.4C77.8443 162.367 78.2276 162.342 78.6109 162.325C79.0109 162.292 79.3943 162.275 79.7609 162.275C80.1276 162.258 80.4526 162.25 80.7359 162.25C82.1193 162.25 83.2693 162.467 84.1859 162.9C85.1193 163.317 85.8609 163.917 86.4109 164.7C86.9776 165.467 87.3776 166.392 87.6109 167.475C87.8443 168.558 87.9609 169.767 87.9609 171.1C87.9609 172.317 87.8443 173.483 87.6109 174.6C87.3943 175.7 87.0026 176.675 86.4359 177.525C85.8693 178.358 85.1026 179.025 84.1359 179.525C83.1693 180.025 81.9526 180.275 80.4859 180.275C80.2693 180.275 79.9776 180.267 79.6109 180.25C79.2443 180.233 78.8609 180.208 78.4609 180.175C78.0609 180.158 77.6776 180.133 77.3109 180.1C76.9443 180.083 76.6609 180.058 76.4609 180.025V162.5ZM81.0609 165.15C80.7943 165.15 80.5193 165.158 80.2359 165.175C79.9693 165.175 79.7609 165.192 79.6109 165.225V177.275C79.6609 177.292 79.7443 177.308 79.8609 177.325C79.9943 177.325 80.1276 177.333 80.2609 177.35C80.4109 177.35 80.5443 177.358 80.6609 177.375C80.7943 177.375 80.8859 177.375 80.9359 177.375C81.6859 177.375 82.3026 177.2 82.7859 176.85C83.2693 176.5 83.6443 176.033 83.9109 175.45C84.1943 174.867 84.3859 174.2 84.4859 173.45C84.6026 172.683 84.6609 171.883 84.6609 171.05C84.6609 170.283 84.6109 169.542 84.5109 168.825C84.4276 168.108 84.2526 167.483 83.9859 166.95C83.7359 166.4 83.3693 165.967 82.8859 165.65C82.4193 165.317 81.8109 165.15 81.0609 165.15ZM91.0898 162.5H99.8398V165.4H94.2398V169.7H99.3148V172.6H94.2398V177.1H99.9398V180H91.0898V162.5ZM109.459 162.675C110.142 162.525 110.876 162.417 111.659 162.35C112.442 162.283 113.117 162.25 113.684 162.25C114.401 162.25 115.101 162.325 115.784 162.475C116.467 162.608 117.067 162.867 117.584 163.25C118.117 163.617 118.542 164.125 118.859 164.775C119.192 165.408 119.359 166.217 119.359 167.2C119.359 168.617 119.092 169.775 118.559 170.675C118.042 171.558 117.326 172.167 116.409 172.5L117.409 173.3L120.634 180H117.009L113.959 173.1L112.609 172.775V180H109.459V162.675ZM112.609 170.625H113.684C114.467 170.625 115.059 170.392 115.459 169.925C115.859 169.442 116.059 168.7 116.059 167.7C116.059 166.95 115.892 166.342 115.559 165.875C115.226 165.392 114.701 165.15 113.984 165.15C113.717 165.15 113.459 165.158 113.209 165.175C112.959 165.192 112.759 165.225 112.609 165.275V170.625ZM127.007 180.325C126.207 180.292 125.524 180.192 124.957 180.025C124.391 179.875 123.941 179.692 123.607 179.475L124.432 176.8C124.682 176.983 125.024 177.15 125.457 177.3C125.907 177.45 126.424 177.558 127.007 177.625V172.125C126.574 171.875 126.149 171.6 125.732 171.3C125.316 171 124.941 170.65 124.607 170.25C124.291 169.833 124.024 169.358 123.807 168.825C123.607 168.275 123.507 167.625 123.507 166.875C123.507 165.575 123.824 164.55 124.457 163.8C125.091 163.033 125.941 162.533 127.007 162.3V160H129.382V162.2C129.966 162.233 130.482 162.317 130.932 162.45C131.382 162.567 131.807 162.725 132.207 162.925L131.382 165.525C131.132 165.392 130.841 165.275 130.507 165.175C130.174 165.058 129.799 164.975 129.382 164.925V169.85C129.816 170.117 130.241 170.408 130.657 170.725C131.091 171.025 131.474 171.383 131.807 171.8C132.157 172.217 132.441 172.692 132.657 173.225C132.874 173.758 132.982 174.383 132.982 175.1C132.982 176.533 132.657 177.667 132.007 178.5C131.357 179.333 130.482 179.883 129.382 180.15V182.5H127.007V180.325ZM128.357 177.6C128.891 177.5 129.291 177.258 129.557 176.875C129.824 176.475 129.957 175.992 129.957 175.425C129.957 174.858 129.807 174.392 129.507 174.025C129.207 173.642 128.824 173.292 128.357 172.975V177.6ZM128.057 164.875C127.457 164.942 127.041 165.158 126.807 165.525C126.591 165.875 126.482 166.258 126.482 166.675C126.482 167.192 126.632 167.633 126.932 168C127.232 168.35 127.607 168.683 128.057 169V164.875ZM137.521 177.35H140.371V167.525L140.696 165.825L139.671 167.3L138.021 168.575L136.646 166.9L141.471 162.2H143.221V177.35H146.021V180H137.521V177.35ZM153.109 177.625C154.009 177.625 154.693 177.333 155.159 176.75C155.626 176.167 155.859 175.417 155.859 174.5C155.859 173.45 155.584 172.692 155.034 172.225C154.484 171.758 153.693 171.525 152.659 171.525L151.034 171.625V162.5H158.309V165.4H153.584V168.975L154.409 168.875C155.759 168.925 156.834 169.425 157.634 170.375C158.434 171.325 158.834 172.658 158.834 174.375C158.834 175.358 158.693 176.225 158.409 176.975C158.126 177.725 157.734 178.35 157.234 178.85C156.751 179.35 156.168 179.725 155.484 179.975C154.801 180.225 154.059 180.35 153.259 180.35C152.659 180.35 152.051 180.283 151.434 180.15C150.834 180.033 150.343 179.875 149.959 179.675L150.734 177.15C151.351 177.467 152.143 177.625 153.109 177.625ZM162.598 171.225C162.598 169.592 162.706 168.2 162.923 167.05C163.156 165.9 163.489 164.967 163.923 164.25C164.356 163.517 164.889 162.983 165.523 162.65C166.156 162.317 166.881 162.15 167.698 162.15C168.564 162.15 169.314 162.317 169.948 162.65C170.598 162.983 171.131 163.517 171.548 164.25C171.981 164.967 172.298 165.9 172.498 167.05C172.714 168.2 172.823 169.592 172.823 171.225C172.823 172.875 172.706 174.283 172.473 175.45C172.239 176.6 171.906 177.542 171.473 178.275C171.039 178.992 170.506 179.517 169.873 179.85C169.239 180.183 168.514 180.35 167.698 180.35C166.831 180.35 166.073 180.183 165.423 179.85C164.789 179.5 164.264 178.958 163.848 178.225C163.431 177.475 163.114 176.525 162.898 175.375C162.698 174.225 162.598 172.842 162.598 171.225ZM165.573 171.225C165.573 173.458 165.739 175.1 166.073 176.15C166.406 177.183 166.956 177.7 167.723 177.7C168.089 177.7 168.406 177.583 168.673 177.35C168.956 177.117 169.181 176.742 169.348 176.225C169.514 175.708 169.639 175.042 169.723 174.225C169.806 173.408 169.848 172.408 169.848 171.225C169.848 169.008 169.681 167.383 169.348 166.35C169.031 165.317 168.481 164.8 167.698 164.8C167.314 164.8 166.989 164.917 166.723 165.15C166.456 165.383 166.239 165.758 166.073 166.275C165.906 166.792 165.781 167.458 165.698 168.275C165.614 169.092 165.573 170.075 165.573 171.225ZM182.413 162.675C183.013 162.542 183.671 162.442 184.388 162.375C185.105 162.292 185.821 162.25 186.538 162.25C187.305 162.25 188.055 162.325 188.788 162.475C189.538 162.608 190.205 162.883 190.788 163.3C191.371 163.717 191.846 164.308 192.213 165.075C192.58 165.825 192.763 166.808 192.763 168.025C192.763 169.125 192.605 170.058 192.288 170.825C191.988 171.592 191.58 172.217 191.063 172.7C190.546 173.183 189.946 173.533 189.263 173.75C188.596 173.967 187.905 174.075 187.188 174.075C187.121 174.075 187.013 174.075 186.863 174.075C186.713 174.075 186.555 174.075 186.388 174.075C186.221 174.058 186.055 174.042 185.888 174.025C185.738 174.008 185.63 173.992 185.563 173.975V180H182.413V162.675ZM185.563 171.15C185.663 171.183 185.846 171.217 186.113 171.25C186.396 171.267 186.588 171.275 186.688 171.275C187.055 171.275 187.405 171.225 187.738 171.125C188.071 171.025 188.363 170.858 188.613 170.625C188.88 170.375 189.088 170.042 189.238 169.625C189.388 169.192 189.463 168.65 189.463 168C189.463 167.45 189.388 166.983 189.238 166.6C189.105 166.217 188.913 165.917 188.663 165.7C188.43 165.467 188.155 165.3 187.838 165.2C187.521 165.1 187.188 165.05 186.838 165.05C186.321 165.05 185.896 165.092 185.563 165.175V171.15ZM194.982 171.25C194.982 168.283 195.49 166.025 196.507 164.475C197.524 162.925 199.074 162.15 201.157 162.15C202.24 162.15 203.174 162.367 203.957 162.8C204.74 163.217 205.382 163.825 205.882 164.625C206.382 165.408 206.749 166.367 206.982 167.5C207.232 168.617 207.357 169.867 207.357 171.25C207.357 174.217 206.832 176.475 205.782 178.025C204.749 179.575 203.207 180.35 201.157 180.35C200.057 180.35 199.115 180.142 198.332 179.725C197.565 179.292 196.932 178.683 196.432 177.9C195.932 177.1 195.565 176.142 195.332 175.025C195.099 173.892 194.982 172.633 194.982 171.25ZM198.282 171.25C198.282 172.133 198.332 172.958 198.432 173.725C198.532 174.475 198.699 175.125 198.932 175.675C199.165 176.225 199.457 176.658 199.807 176.975C200.174 177.292 200.624 177.45 201.157 177.45C202.124 177.45 202.849 176.958 203.332 175.975C203.815 174.992 204.057 173.417 204.057 171.25C204.057 170.4 204.007 169.6 203.907 168.85C203.807 168.083 203.64 167.425 203.407 166.875C203.19 166.308 202.899 165.867 202.532 165.55C202.165 165.217 201.707 165.05 201.157 165.05C199.24 165.05 198.282 167.117 198.282 171.25ZM210.45 162.675C211.134 162.525 211.867 162.417 212.65 162.35C213.434 162.283 214.109 162.25 214.675 162.25C215.392 162.25 216.092 162.325 216.775 162.475C217.459 162.608 218.059 162.867 218.575 163.25C219.109 163.617 219.534 164.125 219.85 164.775C220.184 165.408 220.35 166.217 220.35 167.2C220.35 168.617 220.084 169.775 219.55 170.675C219.034 171.558 218.317 172.167 217.4 172.5L218.4 173.3L221.625 180H218L214.95 173.1L213.6 172.775V180H210.45V162.675ZM213.6 170.625H214.675C215.459 170.625 216.05 170.392 216.45 169.925C216.85 169.442 217.05 168.7 217.05 167.7C217.05 166.95 216.884 166.342 216.55 165.875C216.217 165.392 215.692 165.15 214.975 165.15C214.709 165.15 214.45 165.158 214.2 165.175C213.95 165.192 213.75 165.225 213.6 165.275V170.625ZM230.65 162.675C231.334 162.525 232.067 162.417 232.85 162.35C233.634 162.283 234.309 162.25 234.875 162.25C235.592 162.25 236.292 162.325 236.975 162.475C237.659 162.608 238.259 162.867 238.775 163.25C239.309 163.617 239.734 164.125 240.05 164.775C240.384 165.408 240.55 166.217 240.55 167.2C240.55 168.617 240.284 169.775 239.75 170.675C239.234 171.558 238.517 172.167 237.6 172.5L238.6 173.3L241.825 180H238.2L235.15 173.1L233.8 172.775V180H230.65V162.675ZM233.8 170.625H234.875C235.659 170.625 236.25 170.392 236.65 169.925C237.05 169.442 237.25 168.7 237.25 167.7C237.25 166.95 237.084 166.342 236.75 165.875C236.417 165.392 235.892 165.15 235.175 165.15C234.909 165.15 234.65 165.158 234.4 165.175C234.15 165.192 233.95 165.225 233.8 165.275V170.625ZM248.199 180.325C247.399 180.292 246.715 180.192 246.149 180.025C245.582 179.875 245.132 179.692 244.799 179.475L245.624 176.8C245.874 176.983 246.215 177.15 246.649 177.3C247.099 177.45 247.615 177.558 248.199 177.625V172.125C247.765 171.875 247.34 171.6 246.924 171.3C246.507 171 246.132 170.65 245.799 170.25C245.482 169.833 245.215 169.358 244.999 168.825C244.799 168.275 244.699 167.625 244.699 166.875C244.699 165.575 245.015 164.55 245.649 163.8C246.282 163.033 247.132 162.533 248.199 162.3V160H250.574V162.2C251.157 162.233 251.674 162.317 252.124 162.45C252.574 162.567 252.999 162.725 253.399 162.925L252.574 165.525C252.324 165.392 252.032 165.275 251.699 165.175C251.365 165.058 250.99 164.975 250.574 164.925V169.85C251.007 170.117 251.432 170.408 251.849 170.725C252.282 171.025 252.665 171.383 252.999 171.8C253.349 172.217 253.632 172.692 253.849 173.225C254.065 173.758 254.174 174.383 254.174 175.1C254.174 176.533 253.849 177.667 253.199 178.5C252.549 179.333 251.674 179.883 250.574 180.15V182.5H248.199V180.325ZM249.549 177.6C250.082 177.5 250.482 177.258 250.749 176.875C251.015 176.475 251.149 175.992 251.149 175.425C251.149 174.858 250.999 174.392 250.699 174.025C250.399 173.642 250.015 173.292 249.549 172.975V177.6ZM249.249 164.875C248.649 164.942 248.232 165.158 247.999 165.525C247.782 165.875 247.674 166.258 247.674 166.675C247.674 167.192 247.824 167.633 248.124 168C248.424 168.35 248.799 168.683 249.249 169V164.875ZM258.737 180L263.462 166.325L264.362 165.1L263.112 165.35H257.837V162.5H267.312V163.45L261.637 180H258.737ZM274.301 177.625C275.201 177.625 275.884 177.333 276.351 176.75C276.817 176.167 277.051 175.417 277.051 174.5C277.051 173.45 276.776 172.692 276.226 172.225C275.676 171.758 274.884 171.525 273.851 171.525L272.226 171.625V162.5H279.501V165.4H274.776V168.975L275.601 168.875C276.951 168.925 278.026 169.425 278.826 170.375C279.626 171.325 280.026 172.658 280.026 174.375C280.026 175.358 279.884 176.225 279.601 176.975C279.317 177.725 278.926 178.35 278.426 178.85C277.942 179.35 277.359 179.725 276.676 179.975C275.992 180.225 275.251 180.35 274.451 180.35C273.851 180.35 273.242 180.283 272.626 180.15C272.026 180.033 271.534 179.875 271.151 179.675L271.926 177.15C272.542 177.467 273.334 177.625 274.301 177.625Z" fill="#379FDD"/>
<path d="M108.334 173.75H174.923V175H108.334V173.75Z" fill="#379FDD"/>
</svg>
