<svg width="477" height="289" viewBox="0 0 477 289" fill="none" xmlns="http://www.w3.org/2000/svg">
<path d="M73.7797 95.1108H94.0802C103.471 95.1108 108.982 91.1433 108.982 84.6213V84.5126C108.982 79.3494 105.946 76.7406 101.166 75.2189C104.652 73.7514 107.239 71.1426 107.239 66.7403V66.6316C107.239 64.0228 106.283 62.0119 104.708 60.4901C102.403 58.2618 98.9163 57.0661 93.9677 57.0661H73.7797V95.1108ZM84.4079 72.2296V65.5446H91.4934C94.755 65.5446 96.442 66.7403 96.442 68.8056V68.9143C96.442 71.1426 94.5863 72.2296 91.2685 72.2296H84.4079ZM84.4079 86.6323V79.6212H92.7306C96.3858 79.6212 98.0728 80.9799 98.0728 83.0452V83.1539C98.0728 85.3822 96.1608 86.6323 92.843 86.6323H84.4079Z" fill="white"/>
<path d="M113.978 95.1108H143.951V85.8714H124.888V57.0661H113.978V95.1108Z" fill="white"/>
<path d="M145.481 95.1108H156.953L159.765 88.3171H174.948L177.816 95.1108H189.513L172.755 56.7943H162.239L145.481 95.1108ZM162.97 80.1103L167.413 69.2947L171.799 80.1103H162.97Z" fill="white"/>
<path d="M209.757 95.8717C218.473 95.8717 223.478 92.2303 227.189 87.2845L218.979 81.6321C216.617 84.4039 214.199 86.2518 210.094 86.2518C204.583 86.2518 200.703 81.7952 200.703 76.0884V75.9797C200.703 70.4361 204.583 65.9251 210.094 65.9251C213.862 65.9251 216.449 67.6643 218.698 70.3817L226.908 64.2402C223.422 59.5662 218.248 56.3052 210.207 56.3052C198.285 56.3052 189.456 65.0011 189.456 76.0884V76.1971C189.456 87.5562 198.51 95.8717 209.757 95.8717Z" fill="white"/>
<path d="M231.883 95.1108H242.793V85.2735L246.785 80.9799L256.682 95.1108H269.785L254.377 73.4253L269.279 57.0661H256.345L242.793 72.5014V57.0661H231.883V95.1108Z" fill="white"/>
<path d="M73.7797 135.873H84.6891V122.286H103.303V113.535H84.6891V107.068H105.271V97.8283H73.7797V135.873Z" fill="white"/>
<path d="M110.244 135.873H121.153V124.351H125.933L133.862 135.873H146.459L137.068 122.612C141.96 120.601 145.165 116.742 145.165 110.927V110.818C145.165 107.068 143.984 104.133 141.679 101.959C139.036 99.3501 134.875 97.8283 128.857 97.8283H110.244V135.873ZM121.153 116.09V106.959H128.295C131.95 106.959 134.2 108.481 134.2 111.47V111.579C134.2 114.351 132.063 116.09 128.351 116.09H121.153Z" fill="white"/>
<path d="M150.887 135.873H161.853V97.8283H150.887V135.873Z" fill="white"/>
<path d="M169.059 135.873H184.017C198.188 135.873 206.455 127.721 206.455 116.742V116.633C206.455 105.655 198.301 97.8283 184.242 97.8283H169.059V135.873ZM179.969 126.525V107.176H184.411C190.934 107.176 195.264 110.709 195.264 116.796V116.905C195.264 123.047 190.934 126.525 184.411 126.525H179.969Z" fill="white"/>
<path d="M206.109 135.873H217.58L220.392 129.079H235.575L238.443 135.873H250.14L233.382 97.5565H222.866L206.109 135.873ZM223.597 120.873L228.04 110.057L232.426 120.873H223.597Z" fill="white"/>
<path d="M259.113 135.873H270.079V121.47L285.037 97.8283H272.834L264.68 111.687L256.583 97.8283H244.155L259.113 121.633V135.873Z" fill="white"/>
<path d="M40.47 79.751C40.5051 80.5984 39.8739 81.3103 39.0323 81.3781L1.71979 83.1408C0.878156 83.1747 0.176794 82.5306 0.106658 81.6832L0.00145372 79.3442C-0.0336144 78.4968 0.597611 77.7849 1.43925 77.7171L38.7517 75.9544C39.5933 75.9205 40.2947 76.5646 40.3648 77.412L40.47 79.751Z" fill="white"/>
<path d="M71.3652 0.00127849C72.2069 -0.0326141 72.9082 0.611345 72.9784 1.45866L74.872 39.215C74.9071 40.0623 74.2759 40.7741 73.4342 40.8419L71.1548 40.9435C70.3132 40.9774 69.6118 40.3335 69.5417 39.4862L67.648 1.7298C67.6129 0.882486 68.2442 0.170742 69.0858 0.102956L71.3652 0.00127849Z" fill="white"/>
<path d="M15.1506 21.0143C15.8169 20.2687 16.904 20.167 17.5703 20.7771L46.6768 47.9251C47.3431 48.5352 47.308 49.6198 46.6417 50.3654L44.8182 52.3651C44.1519 53.1107 43.0648 53.2124 42.3985 52.6023L13.292 25.4543C12.6257 24.8442 12.6608 23.7596 13.327 23.014L15.1506 21.0143Z" fill="white"/>
<path d="M46.8616 168.331C46.8616 168.331 50.8602 205.611 98.738 206.829H239.776" stroke="#379FDD" stroke-width="6" stroke-miterlimit="10"/>
<path d="M317.879 58.123C317.879 58.123 307.553 21.5353 260.875 20.3813L123.403 20.551" stroke="#379FDD" stroke-width="6" stroke-miterlimit="10"/>
<path d="M417.069 216.167C417.069 225.585 409.178 233.248 399.4 233.248H319.926C310.184 233.248 302.258 225.619 302.258 216.167V139.367C302.258 129.949 310.149 122.286 319.926 122.286H399.366C409.108 122.286 417.034 129.915 417.034 139.367V216.167H417.069Z" fill="#2D2D2D"/>
<path d="M423.318 221.813C423.318 231.068 415.559 238.533 406.018 238.533H328.15C318.574 238.533 310.85 231.034 310.85 221.813V146.555C310.85 137.299 318.609 129.834 328.15 129.834H405.983C415.559 129.834 423.283 137.333 423.283 146.555V221.813H423.318Z" stroke="#EFCB37" stroke-width="5" stroke-miterlimit="10"/>
<path d="M443.21 225.224C443.175 224.512 443.701 223.936 444.403 223.902L475.122 222.682C475.824 222.648 476.385 223.191 476.42 223.902L476.49 225.8C476.525 226.512 475.999 227.088 475.298 227.122L444.578 228.342C443.877 228.376 443.316 227.834 443.28 227.122L443.21 225.224Z" fill="white"/>
<path d="M415.015 288.976C414.314 289.01 413.753 288.468 413.718 287.756L412.385 256.643C412.35 255.931 412.876 255.355 413.578 255.321L415.471 255.253C416.173 255.219 416.734 255.761 416.769 256.473L418.101 287.586C418.136 288.298 417.61 288.874 416.909 288.908L415.015 288.976Z" fill="white"/>
<path d="M459.376 273.487C458.815 274.097 457.938 274.165 457.412 273.657L433.636 251.118C433.11 250.61 433.11 249.695 433.671 249.119L435.179 247.492C435.74 246.882 436.617 246.814 437.143 247.322L460.919 269.861C461.445 270.369 461.445 271.284 460.884 271.86L459.376 273.487Z" fill="white"/>
<path d="M344.97 189.864C354.53 189.864 361.222 184.634 361.222 175.861V175.749C361.222 167.201 354.811 163.265 347.726 163.265C345.083 163.265 343.227 163.827 341.428 164.671L341.765 158.71H359.479V149.713H333.161L332.037 169.676L338.504 173.275C340.359 172.15 342.384 171.306 344.802 171.306C348.232 171.306 350.594 173.05 350.594 175.861V175.974C350.594 178.786 348.401 180.585 344.802 180.585C341.484 180.585 338.447 179.011 335.242 176.311L329 183.622C333.105 187.446 337.997 189.864 344.97 189.864Z" fill="#EFCB37"/>
<path d="M383.822 189.864C395.069 189.864 402.098 180.529 402.098 169.395V169.282C402.098 158.148 395.125 148.925 383.934 148.925C372.744 148.925 365.658 158.26 365.658 169.395V169.507C365.658 180.641 372.575 189.864 383.822 189.864ZM383.934 180.191C379.548 180.191 376.624 175.693 376.624 169.395V169.282C376.624 162.984 379.492 158.598 383.822 158.598C388.152 158.598 391.132 163.153 391.132 169.395V169.507C391.132 175.749 388.32 180.191 383.934 180.191Z" fill="#EFCB37"/>
<path d="M329.485 202.246C329.485 201.332 329.617 200.551 329.881 199.901C330.145 199.251 330.511 198.713 330.978 198.286C331.445 197.86 332.003 197.555 332.653 197.373C333.323 197.169 334.044 197.068 334.816 197.068C335.587 197.068 336.298 197.159 336.948 197.342C337.598 197.525 338.156 197.819 338.623 198.225C339.11 198.632 339.486 199.17 339.75 199.84C340.014 200.49 340.156 201.292 340.177 202.246C340.156 203.201 340.014 204.013 339.75 204.683C339.486 205.333 339.11 205.861 338.623 206.267C338.156 206.673 337.598 206.968 336.948 207.15C336.298 207.333 335.587 207.424 334.816 207.424C334.044 207.424 333.323 207.333 332.653 207.15C332.003 206.968 331.445 206.673 330.978 206.267C330.511 205.861 330.145 205.333 329.881 204.683C329.617 204.013 329.485 203.201 329.485 202.246ZM333.018 202.246C333.018 203.993 333.617 204.866 334.816 204.866C335.445 204.866 335.892 204.683 336.156 204.317C336.44 203.932 336.592 203.241 336.613 202.246C336.592 201.271 336.44 200.591 336.156 200.205C335.892 199.82 335.445 199.627 334.816 199.627C334.186 199.627 333.729 199.82 333.445 200.205C333.161 200.591 333.018 201.271 333.018 202.246ZM341.852 213.516C341.852 212.603 341.984 211.821 342.248 211.171C342.512 210.521 342.877 209.983 343.344 209.557C343.811 209.13 344.37 208.826 345.02 208.643C345.69 208.44 346.411 208.338 347.182 208.338C347.954 208.338 348.665 208.43 349.315 208.612C349.964 208.795 350.523 209.09 350.99 209.496C351.477 209.902 351.853 210.44 352.117 211.11C352.381 211.76 352.523 212.562 352.543 213.516C352.523 214.471 352.381 215.283 352.117 215.953C351.853 216.603 351.477 217.131 350.99 217.537C350.523 217.943 349.964 218.238 349.315 218.421C348.665 218.603 347.954 218.695 347.182 218.695C346.411 218.695 345.69 218.603 345.02 218.421C344.37 218.238 343.811 217.943 343.344 217.537C342.877 217.131 342.512 216.603 342.248 215.953C341.984 215.283 341.852 214.471 341.852 213.516ZM345.385 213.516C345.385 215.263 345.984 216.136 347.182 216.136C347.812 216.136 348.259 215.953 348.523 215.588C348.807 215.202 348.959 214.511 348.98 213.516C348.959 212.542 348.807 211.861 348.523 211.476C348.259 211.09 347.812 210.897 347.182 210.897C346.553 210.897 346.096 211.09 345.812 211.476C345.527 211.861 345.385 212.542 345.385 213.516ZM348.553 197.007L350.777 199.017L333.232 219.182L331.008 217.08L348.553 197.007Z" fill="#EFCB37"/>
<path d="M354.671 208.095C354.671 204.541 355.453 201.81 357.016 199.901C358.58 197.972 360.814 197.007 363.717 197.007C365.24 197.007 366.571 197.271 367.708 197.799C368.845 198.327 369.789 199.078 370.541 200.053C371.292 201.028 371.85 202.195 372.216 203.556C372.581 204.917 372.764 206.429 372.764 208.095C372.764 211.648 371.972 214.39 370.388 216.319C368.825 218.228 366.601 219.182 363.717 219.182C362.174 219.182 360.834 218.918 359.697 218.39C358.56 217.862 357.615 217.111 356.864 216.136C356.133 215.161 355.585 213.994 355.219 212.633C354.854 211.273 354.671 209.76 354.671 208.095ZM359.057 208.095C359.057 209.171 359.148 210.166 359.331 211.08C359.514 211.973 359.788 212.745 360.154 213.395C360.539 214.044 361.027 214.552 361.616 214.918C362.205 215.283 362.905 215.466 363.717 215.466C365.2 215.466 366.347 214.887 367.159 213.73C367.972 212.572 368.378 210.694 368.378 208.095C368.378 207.059 368.286 206.094 368.104 205.201C367.941 204.307 367.677 203.526 367.312 202.855C366.946 202.185 366.469 201.667 365.88 201.302C365.291 200.916 364.57 200.723 363.717 200.723C362.235 200.723 361.088 201.322 360.275 202.52C359.463 203.698 359.057 205.556 359.057 208.095Z" fill="#EFCB37"/>
<path d="M375.747 197.433H388.388V201.15H379.92V206.419H387.718V210.135H379.92V218.756H375.747V197.433Z" fill="#EFCB37"/>
<path d="M391.215 197.433H403.856V201.15H395.388V206.419H403.186V210.135H395.388V218.756H391.215V197.433Z" fill="#EFCB37"/>
<path d="M75.4609 156.5C75.7609 156.45 76.0943 156.417 76.4609 156.4C76.8443 156.367 77.2276 156.342 77.6109 156.325C78.0109 156.292 78.3943 156.275 78.7609 156.275C79.1276 156.258 79.4526 156.25 79.7359 156.25C81.1193 156.25 82.2693 156.467 83.1859 156.9C84.1193 157.317 84.8609 157.917 85.4109 158.7C85.9776 159.467 86.3776 160.392 86.6109 161.475C86.8443 162.558 86.9609 163.767 86.9609 165.1C86.9609 166.317 86.8443 167.483 86.6109 168.6C86.3943 169.7 86.0026 170.675 85.4359 171.525C84.8693 172.358 84.1026 173.025 83.1359 173.525C82.1693 174.025 80.9526 174.275 79.4859 174.275C79.2693 174.275 78.9776 174.267 78.6109 174.25C78.2443 174.233 77.8609 174.208 77.4609 174.175C77.0609 174.158 76.6776 174.133 76.3109 174.1C75.9443 174.083 75.6609 174.058 75.4609 174.025V156.5ZM80.0609 159.15C79.7943 159.15 79.5193 159.158 79.2359 159.175C78.9693 159.175 78.7609 159.192 78.6109 159.225V171.275C78.6609 171.292 78.7443 171.308 78.8609 171.325C78.9943 171.325 79.1276 171.333 79.2609 171.35C79.4109 171.35 79.5443 171.358 79.6609 171.375C79.7943 171.375 79.8859 171.375 79.9359 171.375C80.6859 171.375 81.3026 171.2 81.7859 170.85C82.2693 170.5 82.6443 170.033 82.9109 169.45C83.1943 168.867 83.3859 168.2 83.4859 167.45C83.6026 166.683 83.6609 165.883 83.6609 165.05C83.6609 164.283 83.6109 163.542 83.5109 162.825C83.4276 162.108 83.2526 161.483 82.9859 160.95C82.7359 160.4 82.3693 159.967 81.8859 159.65C81.4193 159.317 80.8109 159.15 80.0609 159.15ZM90.0898 156.5H98.8398V159.4H93.2398V163.7H98.3148V166.6H93.2398V171.1H98.9398V174H90.0898V156.5ZM108.459 156.675C109.142 156.525 109.876 156.417 110.659 156.35C111.442 156.283 112.117 156.25 112.684 156.25C113.401 156.25 114.101 156.325 114.784 156.475C115.467 156.608 116.067 156.867 116.584 157.25C117.117 157.617 117.542 158.125 117.859 158.775C118.192 159.408 118.359 160.217 118.359 161.2C118.359 162.617 118.092 163.775 117.559 164.675C117.042 165.558 116.326 166.167 115.409 166.5L116.409 167.3L119.634 174H116.009L112.959 167.1L111.609 166.775V174H108.459V156.675ZM111.609 164.625H112.684C113.467 164.625 114.059 164.392 114.459 163.925C114.859 163.442 115.059 162.7 115.059 161.7C115.059 160.95 114.892 160.342 114.559 159.875C114.226 159.392 113.701 159.15 112.984 159.15C112.717 159.15 112.459 159.158 112.209 159.175C111.959 159.192 111.759 159.225 111.609 159.275V164.625ZM126.007 174.325C125.207 174.292 124.524 174.192 123.957 174.025C123.391 173.875 122.941 173.692 122.607 173.475L123.432 170.8C123.682 170.983 124.024 171.15 124.457 171.3C124.907 171.45 125.424 171.558 126.007 171.625V166.125C125.574 165.875 125.149 165.6 124.732 165.3C124.316 165 123.941 164.65 123.607 164.25C123.291 163.833 123.024 163.358 122.807 162.825C122.607 162.275 122.507 161.625 122.507 160.875C122.507 159.575 122.824 158.55 123.457 157.8C124.091 157.033 124.941 156.533 126.007 156.3V154H128.382V156.2C128.966 156.233 129.482 156.317 129.932 156.45C130.382 156.567 130.807 156.725 131.207 156.925L130.382 159.525C130.132 159.392 129.841 159.275 129.507 159.175C129.174 159.058 128.799 158.975 128.382 158.925V163.85C128.816 164.117 129.241 164.408 129.657 164.725C130.091 165.025 130.474 165.383 130.807 165.8C131.157 166.217 131.441 166.692 131.657 167.225C131.874 167.758 131.982 168.383 131.982 169.1C131.982 170.533 131.657 171.667 131.007 172.5C130.357 173.333 129.482 173.883 128.382 174.15V176.5H126.007V174.325ZM127.357 171.6C127.891 171.5 128.291 171.258 128.557 170.875C128.824 170.475 128.957 169.992 128.957 169.425C128.957 168.858 128.807 168.392 128.507 168.025C128.207 167.642 127.824 167.292 127.357 166.975V171.6ZM127.057 158.875C126.457 158.942 126.041 159.158 125.807 159.525C125.591 159.875 125.482 160.258 125.482 160.675C125.482 161.192 125.632 161.633 125.932 162C126.232 162.35 126.607 162.683 127.057 163V158.875ZM136.521 171.35H139.371V161.525L139.696 159.825L138.671 161.3L137.021 162.575L135.646 160.9L140.471 156.2H142.221V171.35H145.021V174H136.521V171.35ZM148.459 161.975C148.459 160.208 148.876 158.8 149.709 157.75C150.559 156.683 151.776 156.15 153.359 156.15C154.909 156.15 156.143 156.7 157.059 157.8C157.993 158.9 158.459 160.55 158.459 162.75C158.459 164.683 158.251 166.358 157.834 167.775C157.418 169.175 156.859 170.342 156.159 171.275C155.459 172.208 154.651 172.925 153.734 173.425C152.818 173.925 151.868 174.233 150.884 174.35L150.184 171.85C151.684 171.55 152.851 170.9 153.684 169.9C154.518 168.883 155.051 167.658 155.284 166.225C154.968 166.642 154.626 166.933 154.259 167.1C153.893 167.267 153.418 167.35 152.834 167.35C152.318 167.35 151.793 167.25 151.259 167.05C150.743 166.833 150.276 166.508 149.859 166.075C149.443 165.625 149.101 165.067 148.834 164.4C148.584 163.717 148.459 162.908 148.459 161.975ZM151.334 161.8C151.334 162.75 151.534 163.475 151.934 163.975C152.351 164.458 152.876 164.7 153.509 164.7C153.993 164.7 154.401 164.617 154.734 164.45C155.068 164.267 155.326 164.017 155.509 163.7C155.543 163.517 155.559 163.325 155.559 163.125C155.576 162.925 155.584 162.733 155.584 162.55C155.584 162.033 155.543 161.55 155.459 161.1C155.376 160.633 155.243 160.233 155.059 159.9C154.876 159.567 154.643 159.3 154.359 159.1C154.076 158.9 153.734 158.8 153.334 158.8C152.701 158.8 152.209 159.067 151.859 159.6C151.509 160.133 151.334 160.867 151.334 161.8ZM162.923 174L167.648 160.325L168.548 159.1L167.298 159.35H162.023V156.5H171.498V157.45L165.823 174H162.923ZM181.413 156.675C182.013 156.542 182.671 156.442 183.388 156.375C184.105 156.292 184.821 156.25 185.538 156.25C186.305 156.25 187.055 156.325 187.788 156.475C188.538 156.608 189.205 156.883 189.788 157.3C190.371 157.717 190.846 158.308 191.213 159.075C191.58 159.825 191.763 160.808 191.763 162.025C191.763 163.125 191.605 164.058 191.288 164.825C190.988 165.592 190.58 166.217 190.063 166.7C189.546 167.183 188.946 167.533 188.263 167.75C187.596 167.967 186.905 168.075 186.188 168.075C186.121 168.075 186.013 168.075 185.863 168.075C185.713 168.075 185.555 168.075 185.388 168.075C185.221 168.058 185.055 168.042 184.888 168.025C184.738 168.008 184.63 167.992 184.563 167.975V174H181.413V156.675ZM184.563 165.15C184.663 165.183 184.846 165.217 185.113 165.25C185.396 165.267 185.588 165.275 185.688 165.275C186.055 165.275 186.405 165.225 186.738 165.125C187.071 165.025 187.363 164.858 187.613 164.625C187.88 164.375 188.088 164.042 188.238 163.625C188.388 163.192 188.463 162.65 188.463 162C188.463 161.45 188.388 160.983 188.238 160.6C188.105 160.217 187.913 159.917 187.663 159.7C187.43 159.467 187.155 159.3 186.838 159.2C186.521 159.1 186.188 159.05 185.838 159.05C185.321 159.05 184.896 159.092 184.563 159.175V165.15ZM193.982 165.25C193.982 162.283 194.49 160.025 195.507 158.475C196.524 156.925 198.074 156.15 200.157 156.15C201.24 156.15 202.174 156.367 202.957 156.8C203.74 157.217 204.382 157.825 204.882 158.625C205.382 159.408 205.749 160.367 205.982 161.5C206.232 162.617 206.357 163.867 206.357 165.25C206.357 168.217 205.832 170.475 204.782 172.025C203.749 173.575 202.207 174.35 200.157 174.35C199.057 174.35 198.115 174.142 197.332 173.725C196.565 173.292 195.932 172.683 195.432 171.9C194.932 171.1 194.565 170.142 194.332 169.025C194.099 167.892 193.982 166.633 193.982 165.25ZM197.282 165.25C197.282 166.133 197.332 166.958 197.432 167.725C197.532 168.475 197.699 169.125 197.932 169.675C198.165 170.225 198.457 170.658 198.807 170.975C199.174 171.292 199.624 171.45 200.157 171.45C201.124 171.45 201.849 170.958 202.332 169.975C202.815 168.992 203.057 167.417 203.057 165.25C203.057 164.4 203.007 163.6 202.907 162.85C202.807 162.083 202.64 161.425 202.407 160.875C202.19 160.308 201.899 159.867 201.532 159.55C201.165 159.217 200.707 159.05 200.157 159.05C198.24 159.05 197.282 161.117 197.282 165.25ZM209.45 156.675C210.134 156.525 210.867 156.417 211.65 156.35C212.434 156.283 213.109 156.25 213.675 156.25C214.392 156.25 215.092 156.325 215.775 156.475C216.459 156.608 217.059 156.867 217.575 157.25C218.109 157.617 218.534 158.125 218.85 158.775C219.184 159.408 219.35 160.217 219.35 161.2C219.35 162.617 219.084 163.775 218.55 164.675C218.034 165.558 217.317 166.167 216.4 166.5L217.4 167.3L220.625 174H217L213.95 167.1L212.6 166.775V174H209.45V156.675ZM212.6 164.625H213.675C214.459 164.625 215.05 164.392 215.45 163.925C215.85 163.442 216.05 162.7 216.05 161.7C216.05 160.95 215.884 160.342 215.55 159.875C215.217 159.392 214.692 159.15 213.975 159.15C213.709 159.15 213.45 159.158 213.2 159.175C212.95 159.192 212.75 159.225 212.6 159.275V164.625ZM229.65 156.675C230.334 156.525 231.067 156.417 231.85 156.35C232.634 156.283 233.309 156.25 233.875 156.25C234.592 156.25 235.292 156.325 235.975 156.475C236.659 156.608 237.259 156.867 237.775 157.25C238.309 157.617 238.734 158.125 239.05 158.775C239.384 159.408 239.55 160.217 239.55 161.2C239.55 162.617 239.284 163.775 238.75 164.675C238.234 165.558 237.517 166.167 236.6 166.5L237.6 167.3L240.825 174H237.2L234.15 167.1L232.8 166.775V174H229.65V156.675ZM232.8 164.625H233.875C234.659 164.625 235.25 164.392 235.65 163.925C236.05 163.442 236.25 162.7 236.25 161.7C236.25 160.95 236.084 160.342 235.75 159.875C235.417 159.392 234.892 159.15 234.175 159.15C233.909 159.15 233.65 159.158 233.4 159.175C233.15 159.192 232.95 159.225 232.8 159.275V164.625ZM247.199 174.325C246.399 174.292 245.715 174.192 245.149 174.025C244.582 173.875 244.132 173.692 243.799 173.475L244.624 170.8C244.874 170.983 245.215 171.15 245.649 171.3C246.099 171.45 246.615 171.558 247.199 171.625V166.125C246.765 165.875 246.34 165.6 245.924 165.3C245.507 165 245.132 164.65 244.799 164.25C244.482 163.833 244.215 163.358 243.999 162.825C243.799 162.275 243.699 161.625 243.699 160.875C243.699 159.575 244.015 158.55 244.649 157.8C245.282 157.033 246.132 156.533 247.199 156.3V154H249.574V156.2C250.157 156.233 250.674 156.317 251.124 156.45C251.574 156.567 251.999 156.725 252.399 156.925L251.574 159.525C251.324 159.392 251.032 159.275 250.699 159.175C250.365 159.058 249.99 158.975 249.574 158.925V163.85C250.007 164.117 250.432 164.408 250.849 164.725C251.282 165.025 251.665 165.383 251.999 165.8C252.349 166.217 252.632 166.692 252.849 167.225C253.065 167.758 253.174 168.383 253.174 169.1C253.174 170.533 252.849 171.667 252.199 172.5C251.549 173.333 250.674 173.883 249.574 174.15V176.5H247.199V174.325ZM248.549 171.6C249.082 171.5 249.482 171.258 249.749 170.875C250.015 170.475 250.149 169.992 250.149 169.425C250.149 168.858 249.999 168.392 249.699 168.025C249.399 167.642 249.015 167.292 248.549 166.975V171.6ZM248.249 158.875C247.649 158.942 247.232 159.158 246.999 159.525C246.782 159.875 246.674 160.258 246.674 160.675C246.674 161.192 246.824 161.633 247.124 162C247.424 162.35 247.799 162.683 248.249 163V158.875ZM256.462 161.975C256.462 160.208 256.879 158.8 257.712 157.75C258.562 156.683 259.779 156.15 261.362 156.15C262.912 156.15 264.145 156.7 265.062 157.8C265.995 158.9 266.462 160.55 266.462 162.75C266.462 164.683 266.254 166.358 265.837 167.775C265.42 169.175 264.862 170.342 264.162 171.275C263.462 172.208 262.654 172.925 261.737 173.425C260.82 173.925 259.87 174.233 258.887 174.35L258.187 171.85C259.687 171.55 260.854 170.9 261.687 169.9C262.52 168.883 263.054 167.658 263.287 166.225C262.97 166.642 262.629 166.933 262.262 167.1C261.895 167.267 261.42 167.35 260.837 167.35C260.32 167.35 259.795 167.25 259.262 167.05C258.745 166.833 258.279 166.508 257.862 166.075C257.445 165.625 257.104 165.067 256.837 164.4C256.587 163.717 256.462 162.908 256.462 161.975ZM259.337 161.8C259.337 162.75 259.537 163.475 259.937 163.975C260.354 164.458 260.879 164.7 261.512 164.7C261.995 164.7 262.404 164.617 262.737 164.45C263.07 164.267 263.329 164.017 263.512 163.7C263.545 163.517 263.562 163.325 263.562 163.125C263.579 162.925 263.587 162.733 263.587 162.55C263.587 162.033 263.545 161.55 263.462 161.1C263.379 160.633 263.245 160.233 263.062 159.9C262.879 159.567 262.645 159.3 262.362 159.1C262.079 158.9 261.737 158.8 261.337 158.8C260.704 158.8 260.212 159.067 259.862 159.6C259.512 160.133 259.337 160.867 259.337 161.8ZM270.926 174L275.651 160.325L276.551 159.1L275.301 159.35H270.026V156.5H279.501V157.45L273.826 174H270.926Z" fill="white"/>
<path d="M107.334 167.75H173.923V169H107.334V167.75Z" fill="white"/>
</svg>
