<svg width="218" height="123" viewBox="0 0 218 123" fill="none" xmlns="http://www.w3.org/2000/svg">
<path d="M196.187 81.2222C196.164 80.758 196.507 80.3823 196.965 80.3602L216.999 79.5645C217.456 79.5424 217.822 79.896 217.845 80.3602L217.891 81.598C217.914 82.0621 217.571 82.4379 217.113 82.46L197.079 83.2557C196.622 83.2778 196.256 82.9242 196.233 82.46L196.187 81.2222Z" fill="white"/>
<path d="M177.799 122.798C177.342 122.821 176.976 122.467 176.953 122.003L176.084 101.712C176.061 101.248 176.404 100.872 176.862 100.85L178.097 100.806C178.554 100.784 178.92 101.137 178.943 101.601L179.812 121.892C179.835 122.356 179.492 122.732 179.034 122.754L177.799 122.798Z" fill="white"/>
<path d="M206.73 112.698C206.364 113.096 205.792 113.14 205.449 112.808L189.943 98.1095C189.6 97.778 189.6 97.1812 189.966 96.8054L190.949 95.7445C191.315 95.3466 191.887 95.3024 192.23 95.6339L207.736 110.333C208.079 110.664 208.079 111.261 207.713 111.637L206.73 112.698Z" fill="white"/>
<path d="M48.1162 62.0277H61.3554C67.4799 62.0277 71.0739 59.4402 71.0739 55.1869V55.116C71.0739 51.7487 69.0935 50.0474 65.9763 49.0549C68.25 48.0979 69.937 46.3966 69.937 43.5256V43.4547C69.937 41.7534 69.3136 40.4419 68.2867 39.4495C66.7831 37.9962 64.5093 37.2164 61.282 37.2164H48.1162V62.0277ZM55.0475 47.1055V42.7458H59.6684C61.7955 42.7458 62.8957 43.5256 62.8957 44.8725V44.9434C62.8957 46.3966 61.6855 47.1055 59.5217 47.1055H55.0475ZM55.0475 56.4983V51.926H60.4752C62.859 51.926 63.9592 52.8121 63.9592 54.159V54.2299C63.9592 55.6831 62.7123 56.4983 60.5486 56.4983H55.0475Z" fill="#222222"/>
<path d="M74.3321 62.0277H93.8792V56.0021H81.4468V37.2164H74.3321V62.0277Z" fill="#222222"/>
<path d="M94.8771 62.0277H102.359L104.192 57.5971H114.094L115.964 62.0277H123.593L112.664 37.0392H105.806L94.8771 62.0277ZM106.283 52.245L109.18 45.1915L112.04 52.245H106.283Z" fill="#222222"/>
<path d="M136.795 62.5239C142.479 62.5239 145.743 60.1491 148.164 56.9237L142.81 53.2374C141.269 55.0451 139.692 56.2502 137.015 56.2502C133.421 56.2502 130.891 53.3438 130.891 49.6221V49.5512C130.891 45.9358 133.421 42.9939 137.015 42.9939C139.472 42.9939 141.159 44.1281 142.626 45.9004L147.98 41.8951C145.707 38.8469 142.333 36.7202 137.088 36.7202C129.314 36.7202 123.556 42.3914 123.556 49.6221V49.693C123.556 57.1009 129.46 62.5239 136.795 62.5239Z" fill="#222222"/>
<path d="M151.225 62.0277H158.34V55.6122L160.943 52.8121L167.398 62.0277H175.943L165.894 47.8853L175.613 37.2164H167.178L158.34 47.2827V37.2164H151.225V62.0277Z" fill="#222222"/>
<path d="M48.1162 88.6112H55.2309V79.75H67.3699V74.0434H55.2309V69.8255H68.6534V63.7999H48.1162V88.6112Z" fill="#222222"/>
<path d="M71.8968 88.6112H79.0114V81.0969H82.1287L87.2997 88.6112H95.5146L89.3901 79.9627C92.5807 78.6512 94.6711 76.1347 94.6711 72.3421V72.2712C94.6711 69.8255 93.9009 67.9115 92.3973 66.4937C90.6737 64.7924 87.9598 63.7999 84.0357 63.7999H71.8968V88.6112ZM79.0114 75.7093V69.7546H83.669C86.0528 69.7546 87.5197 70.7471 87.5197 72.6965V72.7674C87.5197 74.5751 86.1261 75.7093 83.7057 75.7093H79.0114Z" fill="#222222"/>
<path d="M98.4026 88.6112H105.554V63.7999H98.4026V88.6112Z" fill="#222222"/>
<path d="M110.254 88.6112H120.009C129.251 88.6112 134.642 83.2945 134.642 76.1347V76.0638C134.642 68.9039 129.324 63.7999 120.156 63.7999H110.254V88.6112ZM117.368 82.5147V69.8964H120.266C124.52 69.8964 127.344 72.2003 127.344 76.1701V76.241C127.344 80.2462 124.52 82.5147 120.266 82.5147H117.368Z" fill="#222222"/>
<path d="M134.416 88.6112H141.897L143.731 84.1806H153.633L155.503 88.6112H163.131L152.203 63.6227H145.345L134.416 88.6112ZM145.821 78.8284L148.719 71.775L151.579 78.8284H145.821Z" fill="#222222"/>
<path d="M168.983 88.6112H176.135V79.2183L185.89 63.7999H177.932L172.614 72.8383L167.333 63.7999H159.228L168.983 79.3247V88.6112Z" fill="#222222"/>
<path d="M26.3929 52.0105C26.4158 52.5632 26.0041 53.0274 25.4552 53.0716L1.12154 54.2212C0.572658 54.2433 0.115258 53.8233 0.0695183 53.2706L0.000908256 51.7452C-0.0219617 51.1926 0.389698 50.7283 0.938578 50.6841L25.2723 49.5345C25.8211 49.5124 26.2785 49.9324 26.3243 50.4851L26.3929 52.0105Z" fill="white"/>
<path d="M46.5415 0.000833777C47.0903 -0.0212696 47.5477 0.398695 47.5935 0.951279L48.8285 25.5745C48.8513 26.127 48.4397 26.5912 47.8908 26.6354L46.4042 26.7017C45.8554 26.7238 45.398 26.3039 45.3522 25.7513L44.1172 1.12811C44.0944 0.575522 44.506 0.111351 45.0549 0.0671439L46.5415 0.000833777Z" fill="white"/>
<path d="M9.88056 13.7046C10.3151 13.2183 11.0241 13.152 11.4586 13.5499L30.4407 31.2547C30.8752 31.6526 30.8523 32.3599 30.4178 32.8462L29.2286 34.1503C28.794 34.6366 28.0851 34.7029 27.6505 34.305L8.66845 16.6002C8.23392 16.2023 8.25679 15.495 8.69132 15.0087L9.88056 13.7046Z" fill="white"/>
<path d="M207.308 37.9056C207.308 37.9056 200.574 14.0446 170.132 13.292L80.4785 13.4027" stroke="#379FDD" stroke-width="6" stroke-miterlimit="10"/>
</svg>
