<svg width="91" height="92" viewBox="0 0 91 92" fill="none" xmlns="http://www.w3.org/2000/svg">
<g clip-path="url(#clip0)">
<path d="M90.0741 34.5793L80.3465 44.4138H13.791L26.8448 31.2165L29.0727 28.98L56.7964 0.935848C57.382 0.334631 58.1818 -0.00390625 59.0165 -0.00390625C59.8511 -0.00390625 60.6509 0.334631 61.2365 0.935848L90.0741 30.0903C90.6688 30.6824 91.0037 31.491 91.0037 32.3348C91.0037 33.1786 90.6688 33.9872 90.0741 34.5793V34.5793Z" fill="#4FBA6F"/>
<path d="M31.2849 33.4531C30.6662 34.0665 29.6757 34.0665 29.057 33.4531L26.8447 31.2165L29.0727 28.98L31.2849 31.2165C31.8932 31.8352 31.8932 32.8344 31.2849 33.4531Z" fill="#24AE5F"/>
<path d="M36.8283 40.6497C36.412 40.6508 36.0125 40.4835 35.719 40.1849L33.5005 37.942C33.0926 37.5438 32.9291 36.954 33.0727 36.3994C33.2162 35.8448 33.6446 35.4117 34.1932 35.2666C34.7418 35.1214 35.3251 35.2868 35.719 35.6991L37.9375 37.942C38.3861 38.3957 38.5203 39.0778 38.2775 39.6705C38.0347 40.2631 37.4628 40.6496 36.8283 40.6497V40.6497Z" fill="#24AE5F"/>
<path d="M43.6798 47.5859C43.2637 47.5858 42.8647 47.4187 42.5705 47.1212L40.1543 44.6784C39.5597 44.056 39.5682 43.0667 40.1734 42.4548C40.7786 41.843 41.7572 41.8344 42.3728 42.4355L44.789 44.8783C45.2376 45.3319 45.3718 46.014 45.129 46.6067C44.8862 47.1993 44.3142 47.5858 43.6798 47.5859V47.5859Z" fill="#24AE5F"/>
<path d="M87.8621 44.4136H3.13793C1.4049 44.4136 0 45.8339 0 47.586V88.8274C0 90.5794 1.4049 91.9998 3.13793 91.9998H87.8621C89.5951 91.9998 91 90.5794 91 88.8274V47.586C91 45.8339 89.5951 44.4136 87.8621 44.4136Z" fill="#F0C419"/>
<path d="M39.2246 50.7588H7.84533C6.97882 50.7588 6.27637 51.469 6.27637 52.345V84.0691C6.27637 84.9452 6.97882 85.6553 7.84533 85.6553H39.2246C40.0912 85.6553 40.7936 84.9452 40.7936 84.0691V52.345C40.7936 51.469 40.0912 50.7588 39.2246 50.7588Z" fill="#F3D55B"/>
<path d="M15.6897 63.4483C17.4227 63.4483 18.8276 62.028 18.8276 60.2759C18.8276 58.5239 17.4227 57.1035 15.6897 57.1035C13.9567 57.1035 12.5518 58.5239 12.5518 60.2759C12.5518 62.028 13.9567 63.4483 15.6897 63.4483Z" fill="white"/>
<path d="M31.3791 79.3102C33.1122 79.3102 34.5171 77.8898 34.5171 76.1378C34.5171 74.3857 33.1122 72.9653 31.3791 72.9653C29.6461 72.9653 28.2412 74.3857 28.2412 76.1378C28.2412 77.8898 29.6461 79.3102 31.3791 79.3102Z" fill="white"/>
<path d="M12.5521 80.8964C11.9176 80.8963 11.3456 80.5098 11.1029 79.9172C10.8601 79.3246 10.9942 78.6424 11.4428 78.1888L33.4083 55.9819C34.024 55.3808 35.0025 55.3894 35.6077 56.0012C36.2129 56.6131 36.2214 57.6024 35.6269 58.2248L13.6613 80.4317C13.3672 80.7292 12.9682 80.8963 12.5521 80.8964V80.8964Z" fill="white"/>
<path d="M48.6379 44.4136V47.586C48.6379 48.462 47.9355 49.1722 47.069 49.1722C46.2024 49.1722 45.5 48.462 45.5 47.586V44.4136H48.6379Z" fill="#E57E25"/>
<path d="M47.069 58.6896C46.2024 58.6896 45.5 57.9794 45.5 57.1034V53.9309C45.5 53.0549 46.2024 52.3447 47.069 52.3447C47.9355 52.3447 48.6379 53.0549 48.6379 53.9309V57.1034C48.6379 57.9794 47.9355 58.6896 47.069 58.6896Z" fill="#E57E25"/>
<path d="M47.069 68.2071C46.2024 68.2071 45.5 67.497 45.5 66.6209V63.4485C45.5 62.5725 46.2024 61.8623 47.069 61.8623C47.9355 61.8623 48.6379 62.5725 48.6379 63.4485V66.6209C48.6379 67.497 47.9355 68.2071 47.069 68.2071Z" fill="#E57E25"/>
<path d="M47.069 77.7242C46.2024 77.7242 45.5 77.0141 45.5 76.138V72.9656C45.5 72.0896 46.2024 71.3794 47.069 71.3794C47.9355 71.3794 48.6379 72.0896 48.6379 72.9656V76.138C48.6379 77.0141 47.9355 77.7242 47.069 77.7242Z" fill="#E57E25"/>
<path d="M47.069 87.2413C46.2024 87.2413 45.5 86.5311 45.5 85.6551V82.4827C45.5 81.6067 46.2024 80.8965 47.069 80.8965C47.9355 80.8965 48.6379 81.6067 48.6379 82.4827V85.6551C48.6379 86.5311 47.9355 87.2413 47.069 87.2413Z" fill="#E57E25"/>
<path d="M62.7585 53.9312H54.9137C54.0472 53.9312 53.3447 53.221 53.3447 52.345C53.3447 51.469 54.0472 50.7588 54.9137 50.7588H62.7585C63.625 50.7588 64.3275 51.469 64.3275 52.345C64.3275 53.221 63.625 53.9312 62.7585 53.9312Z" fill="#F29C1F"/>
<path d="M84.7244 53.9312H69.0348C68.1683 53.9312 67.4658 53.221 67.4658 52.345C67.4658 51.469 68.1683 50.7588 69.0348 50.7588H84.7244C85.591 50.7588 86.2934 51.469 86.2934 52.345C86.2934 53.221 85.591 53.9312 84.7244 53.9312Z" fill="#F29C1F"/>
<path d="M62.7585 66.6207H54.9137C54.0472 66.6207 53.3447 65.9105 53.3447 65.0344C53.3447 64.1584 54.0472 63.4482 54.9137 63.4482H62.7585C63.625 63.4482 64.3275 64.1584 64.3275 65.0344C64.3275 65.9105 63.625 66.6207 62.7585 66.6207Z" fill="#F29C1F"/>
<path d="M84.7244 66.6207H69.0348C68.1683 66.6207 67.4658 65.9105 67.4658 65.0344C67.4658 64.1584 68.1683 63.4482 69.0348 63.4482H84.7244C85.591 63.4482 86.2934 64.1584 86.2934 65.0344C86.2934 65.9105 85.591 66.6207 84.7244 66.6207Z" fill="#F29C1F"/>
<path d="M72.1723 60.2759H54.9137C54.0472 60.2759 53.3447 59.5658 53.3447 58.6897C53.3447 57.8137 54.0472 57.1035 54.9137 57.1035H72.1723C73.0388 57.1035 73.7413 57.8137 73.7413 58.6897C73.7413 59.5658 73.0388 60.2759 72.1723 60.2759Z" fill="#F29C1F"/>
<path d="M84.7237 60.2759H78.4479C77.5814 60.2759 76.8789 59.5658 76.8789 58.6897C76.8789 57.8137 77.5814 57.1035 78.4479 57.1035H84.7237C85.5902 57.1035 86.2927 57.8137 86.2927 58.6897C86.2927 59.5658 85.5902 60.2759 84.7237 60.2759Z" fill="#F29C1F"/>
<path d="M83.1555 72.9653H56.483C55.6165 72.9653 54.9141 73.6755 54.9141 74.5515V84.0688C54.9141 84.9448 55.6165 85.655 56.483 85.655H83.1555C84.022 85.655 84.7244 84.9448 84.7244 84.0688V74.5515C84.7244 73.6755 84.022 72.9653 83.1555 72.9653Z" fill="#F3D55B"/>
</g>
<defs>
<clipPath id="clip0">
<rect width="91" height="92" fill="white"/>
</clipPath>
</defs>
</svg>
