<svg width="91" height="91" viewBox="0 0 91 91" fill="none" xmlns="http://www.w3.org/2000/svg">
<path d="M0 34.126L43.8165 62.0118C44.317 62.3815 44.9085 62.5635 45.5 62.5635C46.0915 62.5635 46.683 62.3815 47.1835 62.0118L91 34.126L47.2063 0.56977C46.1939 -0.186668 44.8061 -0.186668 43.7937 0.56977L0 34.126Z" fill="#64B5F6"/>
<path d="M73.9375 0H17.0625C13.9287 0 11.375 2.55369 11.375 5.6875V68.25C11.375 69.8197 12.649 71.0938 14.2188 71.0938H76.7812C78.351 71.0938 79.625 69.8197 79.625 68.25V5.6875C79.625 2.55369 77.077 0 73.9375 0Z" fill="#ECEFF1"/>
<path d="M25.5938 17.0625H65.4062C66.976 17.0625 68.25 15.7885 68.25 14.2188C68.25 12.649 66.976 11.375 65.4062 11.375H25.5938C24.024 11.375 22.75 12.649 22.75 14.2188C22.75 15.7885 24.024 17.0625 25.5938 17.0625Z" fill="#90A4AE"/>
<path d="M65.4062 22.75H25.5938C24.024 22.75 22.75 24.024 22.75 25.5938C22.75 27.1635 24.024 28.4375 25.5938 28.4375H65.4062C66.976 28.4375 68.25 27.1635 68.25 25.5938C68.25 24.024 66.976 22.75 65.4062 22.75Z" fill="#90A4AE"/>
<path d="M48.3438 34.125H25.5938C24.024 34.125 22.75 35.399 22.75 36.9688C22.75 38.5385 24.024 39.8125 25.5938 39.8125H48.3438C49.9135 39.8125 51.1875 38.5385 51.1875 36.9688C51.1875 35.399 49.9135 34.125 48.3438 34.125Z" fill="#90A4AE"/>
<path d="M47.1835 62.0108C46.683 62.3805 46.0915 62.5625 45.5 62.5625C44.9085 62.5625 44.317 62.3805 43.8165 62.0108L0 34.125V85.3125C0 88.452 2.548 91 5.6875 91H85.3125C88.452 91 91 88.452 91 85.3125V34.125L47.1835 62.0108Z" fill="#1E88E5"/>
<path d="M85.3125 91H5.6875C2.49681 91 0 88.5032 0 85.3125C0 84.4082 0.43225 83.5551 1.16025 83.0204L43.8165 54.5829C44.317 54.2133 44.9085 54.0312 45.5 54.0312C46.0915 54.0312 46.683 54.2133 47.1835 54.5829L89.8397 83.0204C90.5677 83.5551 91 84.4082 91 85.3125C91 88.5032 88.5032 91 85.3125 91Z" fill="#2196F3"/>
</svg>
