<svg width="150" height="58" viewBox="0 0 150 58" fill="none" xmlns="http://www.w3.org/2000/svg">
<rect x="22" y="54.5342" width="137" height="3.76584" rx="1.88292" transform="rotate(-23.457 22 54.5342)" fill="white"/>
<rect x="1.38281" width="137" height="3.76584" rx="1.88292" transform="rotate(21.543 1.38281 0)" fill="white"/>
<path d="M13.5073 19.5347V30.521C14.1079 30.521 15.3457 30.5356 17.2207 30.5649C19.1104 30.5942 20.5679 30.6089 21.5933 30.6089C24.3911 30.6089 26.3394 30.1475 27.438 29.2246C28.5366 28.2871 29.0859 26.8076 29.0859 24.7861C29.0859 23.0137 28.5586 21.6953 27.5039 20.8311C26.4492 19.9668 24.6841 19.5347 22.2085 19.5347H13.5073ZM34.3374 49H29.9429L25.4604 38.8047C24.2446 36.0654 23.4683 34.4175 23.1313 33.8608C22.062 33.9341 20.7949 33.9707 19.3301 33.9707L13.5073 33.7949V49H9.61816V16.1289H20.0112C21.2124 16.1289 22.2744 16.1582 23.1973 16.2168C24.1201 16.2754 25.0356 16.3853 25.9438 16.5464C26.8667 16.6929 27.665 16.9053 28.3389 17.1836C29.0127 17.4473 29.6426 17.7988 30.2285 18.2383C30.8145 18.6631 31.2832 19.1758 31.6348 19.7764C32.001 20.377 32.2866 21.0947 32.4917 21.9297C32.6968 22.75 32.7993 23.6802 32.7993 24.7202C32.7993 26.771 32.2573 28.5361 31.1733 30.0156C30.104 31.4951 28.5806 32.5205 26.603 33.0918C26.603 33.1211 26.7495 33.3848 27.0425 33.8828C27.3354 34.3809 27.6797 34.9961 28.0752 35.7285C28.4854 36.4463 28.8003 37.0469 29.02 37.5303L34.3374 49ZM48.5757 11.8003H50.6631V15.4917C54.3984 15.6089 57.4307 16.3926 59.7598 17.8428L58.6611 20.9409C57.7676 20.4429 56.5884 19.9961 55.1235 19.6006C53.6733 19.1904 52.1865 18.9487 50.6631 18.8755V30.0376L52.9482 30.5869C55.585 31.2168 57.5845 32.2275 58.9468 33.6191C60.3091 34.9961 60.9902 36.959 60.9902 39.5078C60.9902 42.6572 60.0674 45.0669 58.2217 46.7368C56.3906 48.4067 53.8711 49.3223 50.6631 49.4834V53.2847H48.5757V49.4834C46.2319 49.4102 44.1372 49.1172 42.2915 48.6045C40.4604 48.0771 38.9956 47.4766 37.897 46.8027L39.0396 43.6387C41.9985 45.0889 45.1772 45.9092 48.5757 46.0996V33.3555L45.3457 32.5425C40.4092 31.2974 37.9409 28.6606 37.9409 24.6323C37.9409 21.7466 38.8784 19.5566 40.7534 18.0625C42.6284 16.5537 45.2358 15.7114 48.5757 15.5356V11.8003ZM48.5757 29.5322V18.8975C44.1226 19.1611 41.896 20.9849 41.896 24.3687C41.896 25.6138 42.2988 26.6172 43.1045 27.3789C43.9248 28.126 45.1479 28.6973 46.7739 29.0928L48.5757 29.5322ZM50.6631 33.8828V46.1216C54.9258 45.9019 57.0571 43.7412 57.0571 39.6396C57.0571 38.2334 56.6763 37.0981 55.9146 36.2339C55.1675 35.355 53.7979 34.6665 51.8057 34.1685L50.6631 33.8828ZM69.7573 16.1289H73.251V49H69.3618V20.1938C67.8823 21.1606 66.0732 21.9883 63.9346 22.6768V19.0073C64.1689 18.9048 64.645 18.6997 65.3628 18.3921C66.0806 18.0845 66.6152 17.8501 66.9668 17.689C67.333 17.5278 67.7871 17.3008 68.3291 17.0078C68.8711 16.7148 69.3472 16.4219 69.7573 16.1289ZM89.0933 35.8604C87.2329 35.8604 85.519 35.4575 83.9517 34.6519C82.3989 33.8315 81.1465 32.6523 80.1943 31.1143C79.2422 29.5762 78.7661 27.8257 78.7661 25.8628C78.7661 22.8745 79.7915 20.3989 81.8423 18.436C83.8931 16.4731 86.5737 15.4917 89.8843 15.4917C91.5981 15.4917 93.1509 15.77 94.5425 16.3267C95.9487 16.8687 97.0986 17.623 97.9922 18.5898C98.9004 19.542 99.5962 20.6626 100.08 21.9517C100.578 23.2261 100.827 24.6104 100.827 26.1045C100.827 28.1992 100.468 30.0962 99.75 31.7954C99.0322 33.4946 97.7944 35.5381 96.0366 37.9258C95.4067 38.7607 94.3521 40.1011 92.8726 41.9468C91.4077 43.7925 90.0967 45.4258 88.9395 46.8467L87.2036 49H82.3696L94.0371 34.542C92.3818 35.4209 90.7339 35.8604 89.0933 35.8604ZM96.6738 25.687C96.6738 23.6802 96.1025 22.0396 94.96 20.7651C93.832 19.4761 92.1841 18.8315 90.0161 18.8315C87.8335 18.8315 86.105 19.5054 84.8306 20.853C83.5562 22.186 82.9189 23.834 82.9189 25.7969C82.9189 27.8477 83.5342 29.4883 84.7646 30.7188C85.9951 31.9492 87.7017 32.5645 89.8843 32.5645C92.1987 32.5645 93.9053 31.9272 95.0039 30.6528C96.1172 29.3784 96.6738 27.7231 96.6738 25.687ZM108.231 49L119.525 19.5347H104.694L104.936 16.1289H123.986V19.1172L112.23 49H108.231Z" fill="white"/>
</svg>
