<svg width="104" height="104" viewBox="0 0 104 104" fill="none" xmlns="http://www.w3.org/2000/svg">
<path d="M52.0001 87.4445C50.846 87.4445 49.791 86.7925 49.275 85.7602C40.6876 68.5856 10.6481 74.3259 10.346 74.386C8.69587 74.713 7.09222 73.6422 6.76377 71.9928C6.43532 70.3435 7.50415 68.74 9.1533 68.4101C9.50247 68.3403 17.8157 66.7092 27.4833 67.5501C38.542 68.5117 46.9078 72.3572 52.0001 78.758C57.0924 72.3572 65.4582 68.5119 76.517 67.5501C86.184 66.7086 94.4975 68.3405 94.8469 68.4101C96.4971 68.7402 97.5671 70.3453 97.2373 71.9952C96.907 73.6454 95.3021 74.7146 93.6521 74.3856C93.3517 74.3259 63.3126 68.5854 54.7252 85.7602C54.2093 86.7925 53.154 87.4445 52.0001 87.4445Z" fill="#E2DFF4"/>
<path d="M54.7252 85.7603C63.3124 68.5854 93.3518 74.3259 93.6522 74.3856C95.3021 74.7147 96.907 73.6454 97.2373 71.9953C97.5672 70.3453 96.4971 68.7402 94.8469 68.4102C94.4976 68.3403 86.184 66.7086 76.517 67.5501C65.4582 68.5117 57.0924 72.3572 52.0001 78.758V87.4447C53.1541 87.4445 54.2093 86.7925 54.7252 85.7603Z" fill="#BEBCDD"/>
<path d="M98.8299 86.9083C98.6207 86.0694 98.0642 85.3605 97.3004 84.9542C96.1447 84.3428 69.6372 70.5427 52.0001 80.786C34.363 70.5445 7.85557 84.3426 6.6998 84.9542C5.93607 85.3605 5.37951 86.0694 5.17029 86.9083L2.43018 97.8627L5.66673 100.159L39.4801 91.3774C39.4801 91.3774 52.4799 111.015 64.0276 91.3774L101.57 101.052L101.703 97.8976L98.8299 86.9083Z" fill="#F9F9F9"/>
<path d="M101.57 97.8636L98.8304 86.9082C98.6207 86.0695 98.0644 85.3594 97.3003 84.9548C96.1443 84.3426 69.6378 70.5437 52.0001 80.7857V102.476C58.0554 102.476 63.4526 98.7348 66.1896 93.5333L100.202 102.788L101.705 97.8984L101.57 97.8636Z" fill="#E2DFF4"/>
<path d="M100.955 103.898C100.706 103.898 100.454 103.868 100.202 103.804L66.1899 95.1581C63.4524 100.36 58.0552 103.694 52.0001 103.694C45.9451 103.694 40.5477 100.36 37.8104 95.1581L3.79823 103.804C2.16635 104.218 0.509072 103.232 0.0947022 101.601C-0.319667 99.9703 0.666085 98.3122 2.29716 97.8976L38.849 88.6068C40.4167 88.2081 42.0201 89.1028 42.5056 90.6441C43.8166 94.8051 47.632 97.6006 52.0001 97.6006C56.3683 97.6006 60.1837 94.8051 61.4947 90.6441C61.9802 89.1028 63.584 88.2087 65.1513 88.6068L101.703 97.8976C103.334 98.3122 104.32 99.9703 103.906 101.601C103.555 102.98 102.315 103.898 100.955 103.898Z" fill="#BC8173"/>
<path d="M66.1898 95.1581L100.202 103.804C100.454 103.867 100.706 103.898 100.955 103.898C102.315 103.898 103.555 102.98 103.905 101.601C104.32 99.9703 103.334 98.3122 101.703 97.8976L65.151 88.6068C63.5837 88.2087 61.9799 89.1028 61.4944 90.6441C60.1835 94.8051 56.368 97.6006 51.9999 97.6006V103.694C58.0552 103.694 63.4525 100.36 66.1898 95.1581Z" fill="#865240"/>
<path d="M98.3121 7.41435H95.6715V4.77376C95.6715 3.0911 94.3073 1.72693 92.6246 1.72693C90.942 1.72693 89.5778 3.0911 89.5778 4.77376V7.41435H86.9372C85.2545 7.41435 83.8904 8.77852 83.8904 10.4612C83.8904 12.1439 85.2545 13.508 86.9372 13.508H89.5778V16.1486C89.5778 17.8313 90.942 19.1954 92.6246 19.1954C94.3073 19.1954 95.6715 17.8313 95.6715 16.1486V13.508H98.3121C99.9947 13.508 101.359 12.1439 101.359 10.4612C101.359 8.77852 99.9947 7.41435 98.3121 7.41435Z" fill="#31BEBE"/>
<path d="M68.2512 59.8207C67.0578 59.8207 65.9252 59.115 65.4375 57.945C64.7901 56.3918 65.5248 54.6078 67.0779 53.9608L86.5777 45.8359C88.1307 45.1882 89.9147 45.9233 90.5619 47.4763C91.2092 49.0296 90.4745 50.8136 88.9215 51.4606L69.4217 59.5855C69.0387 59.7451 68.6416 59.8207 68.2512 59.8207Z" fill="#FABE2C"/>
<path d="M58.5025 56.5708C58.2689 56.5708 58.0316 56.5435 57.7942 56.4871C56.1572 56.0973 55.1463 54.4544 55.5361 52.8175L63.661 18.6929C64.0508 17.056 65.6926 16.0452 67.3306 16.4348C68.9675 16.8246 69.9785 18.4675 69.5887 20.1044L61.4638 54.229C61.1307 55.6285 59.8811 56.5708 58.5025 56.5708Z" fill="#FABE2C"/>
<path d="M45.4964 56.5703C44.0045 56.5703 42.7011 55.4739 42.4839 53.9539L39.234 31.2042C38.9961 29.5384 40.1535 27.9951 41.8195 27.757C43.4831 27.5186 45.0287 28.6766 45.2667 30.3426L48.5167 53.0923C48.7545 54.7581 47.5971 56.3014 45.9311 56.5395C45.7851 56.5602 45.6398 56.5703 45.4964 56.5703Z" fill="#FED843"/>
<path d="M32.5004 59.8199C31.7207 59.8199 30.9409 59.5223 30.3461 58.9274L10.8464 39.4277C9.65651 38.238 9.65651 36.3087 10.8464 35.1188C12.0361 33.9291 13.9653 33.9291 15.1552 35.1188L34.655 54.6186C35.8449 55.8082 35.8449 57.7375 34.655 58.9274C34.0598 59.5223 33.2802 59.8199 32.5004 59.8199Z" fill="#FED843"/>
<path d="M4.87586 58.1952C6.5586 58.1952 7.92273 56.8311 7.92273 55.1483C7.92273 53.4656 6.5586 52.1014 4.87586 52.1014C3.19311 52.1014 1.82898 53.4656 1.82898 55.1483C1.82898 56.8311 3.19311 58.1952 4.87586 58.1952Z" fill="#5ED8D3"/>
<path d="M52.0001 15.9454C53.6829 15.9454 55.047 14.5812 55.047 12.8985C55.047 11.2158 53.6829 9.85162 52.0001 9.85162C50.3174 9.85162 48.9532 11.2158 48.9532 12.8985C48.9532 14.5812 50.3174 15.9454 52.0001 15.9454Z" fill="#FED843"/>
<path d="M79.6249 33.8199C81.3076 33.8199 82.6718 32.4558 82.6718 30.773C82.6718 29.0903 81.3076 27.7262 79.6249 27.7262C77.9421 27.7262 76.578 29.0903 76.578 30.773C76.578 32.4558 77.9421 33.8199 79.6249 33.8199Z" fill="#AD77E3"/>
<path d="M55.047 12.8985C55.047 11.2156 53.6828 9.85162 52.0001 9.85162V15.9454C53.6828 15.9454 55.047 14.5812 55.047 12.8985Z" fill="#FABE2C"/>
<path d="M9.75072 19.1954C4.48661 19.1954 0.203979 14.9128 0.203979 9.6487C0.203979 4.38459 4.48661 0.101959 9.75072 0.101959C15.0148 0.101959 19.2975 4.38459 19.2975 9.6487C19.2975 14.9128 15.0148 19.1954 9.75072 19.1954Z" fill="#FF6666"/>
</svg>
