<svg width="105" height="93" viewBox="0 0 105 93" fill="none" xmlns="http://www.w3.org/2000/svg">
<path d="M52.5 43.4239C54.2002 43.4239 55.576 42.0481 55.576 40.3479V31.1198H83.2604C84.5039 31.1198 85.6275 30.3719 86.102 29.2213C86.5796 28.0708 86.3153 26.7489 85.4351 25.8688L75.3057 15.7394L85.4351 5.60998C86.3153 4.72983 86.5796 3.40815 86.102 2.25751C85.6275 1.10707 84.5039 0.358978 83.2604 0.358978H52.5C50.7997 0.358978 49.4239 1.73479 49.4239 3.43502V40.3475C49.4239 42.0481 50.7997 43.4239 52.5 43.4239ZM104.075 87.4111L78.368 61.9093C75.9712 59.5125 72.0872 59.5059 69.6823 61.8947L64.8043 66.7401L54.6532 56.6507C53.4843 55.4205 51.516 55.4205 50.3469 56.6507L40.1958 66.7401L35.3178 61.8947C32.913 59.5059 29.029 59.5125 26.6321 61.9093L0.925245 87.4111C0.00222832 88.2724 -0.24365 89.5645 0.248311 90.7334C0.740683 91.9023 1.84785 92.6406 3.07847 92.6406H101.922C103.152 92.6406 104.26 91.9023 104.752 90.7334C105.244 89.5645 104.998 88.2724 104.075 87.4111Z" fill="url(#paint0_linear)"/>
<path d="M74.0322 57.5737L54.653 38.1945C53.4841 36.9643 51.5159 36.9643 50.3468 38.1945L26.6613 61.8802L38.0428 73.2613C39.2117 74.4917 41.18 74.4917 42.3491 73.2613L52.5002 63.1719L62.6513 73.2613C63.2048 73.8767 64.0046 74.1843 64.8043 74.1843C65.6041 74.1843 66.4039 73.8767 66.9574 73.2613L78.3389 61.8802L74.0322 57.5737Z" fill="url(#paint1_linear)"/>
<defs>
<linearGradient id="paint0_linear" x1="52.5" y1="92.6406" x2="52.5" y2="0.359385" gradientUnits="userSpaceOnUse">
<stop stop-color="#00B59C"/>
<stop offset="1" stop-color="#9CFFAC"/>
</linearGradient>
<linearGradient id="paint1_linear" x1="52.5" y1="74.1843" x2="52.5" y2="37.2719" gradientUnits="userSpaceOnUse">
<stop stop-color="#C3FFE8"/>
<stop offset="0.9973" stop-color="#F0FFF4"/>
</linearGradient>
</defs>
</svg>
