<svg width="91" height="91" viewBox="0 0 91 91" fill="none" xmlns="http://www.w3.org/2000/svg">
<path d="M12.24 42.4677C12.1688 41.9658 12.1329 41.4557 12.1332 40.9399C12.1385 35.3395 16.5759 30.649 22.1683 30.349C28.2852 30.0209 33.3666 34.9031 33.3666 40.95V40.9656C33.3661 41.7916 34.0413 42.4673 34.867 42.4671L41.0019 42.467C41.8109 42.467 42.4666 41.8111 42.4666 41.0021L42.4661 28.8171C42.4659 27.6677 43.1155 26.6171 44.1437 26.1033C45.1723 25.5898 46.4022 25.7011 47.3211 26.3916C48.1426 27.0085 49.1284 27.3236 50.1643 27.2986C52.4754 27.2426 54.4102 25.4102 54.5861 23.1051C54.7898 20.4366 52.676 18.2 50.0496 18.2C49.0716 18.2 48.1426 18.5039 47.3596 19.0798C46.7217 19.5488 45.9403 19.8 45.1547 19.7008C43.5597 19.4994 42.4659 18.1742 42.4659 16.683V1.46471C42.4659 0.655662 41.8101 0 41.0012 0H3.03339C1.35807 0 0 1.35807 0 3.03339V41.0028C0 41.8118 0.65584 42.4677 1.46471 42.4677H12.24Z" fill="#C1E3A0"/>
<path d="M48.5331 11.0641C48.5331 11.6814 49.0501 12.1615 49.667 12.14C49.7943 12.1355 49.9221 12.1332 50.05 12.1332C56.0969 12.1332 60.9793 17.2146 60.651 23.3317C60.351 28.9252 55.659 33.3627 50.0575 33.3666C49.9223 33.3668 49.7874 33.3643 49.6528 33.3593C49.0382 33.3369 48.5331 33.8429 48.5331 34.4579L48.5333 41.0021C48.5333 41.8111 49.1891 42.4668 49.9981 42.4668L62.1106 42.4666C63.0707 42.4666 64.0002 42.8837 64.5843 43.6459C65.4308 44.7503 65.4141 46.2483 64.6081 47.3218C63.9912 48.1429 63.6762 49.1284 63.7013 50.1641C63.7569 52.4748 65.589 54.41 67.8937 54.5863C70.5627 54.7905 72.7999 52.6766 72.7999 50.05C72.7999 49.0723 72.4959 48.1434 71.9206 47.3605C71.4516 46.7225 71.2004 45.9406 71.2998 45.155C71.5015 43.56 72.8265 42.467 74.3174 42.467H89.5352C90.3442 42.467 91.0001 41.8111 91.0001 41.0023V3.03339C91.0001 1.35807 89.642 0 87.9667 0H49.9978C49.1887 0 48.5331 0.65584 48.5331 1.46471V11.0641Z" fill="#C9DBFD"/>
<path d="M41.328 78.8602C40.9425 78.8735 40.5535 78.8664 40.1621 78.8385C34.9699 78.4672 30.7744 74.2926 30.3668 69.1033C29.877 62.8659 34.8139 57.6334 40.9498 57.6334C41.078 57.6334 41.2056 57.6357 41.333 57.6402C41.9501 57.6618 42.4673 57.1814 42.4673 56.5641L42.4671 49.9985C42.4671 49.1894 41.8113 48.5338 41.0023 48.5338L28.8886 48.5339C27.9281 48.5339 26.9986 48.1164 26.4145 47.354C25.5683 46.2492 25.5854 44.7517 26.3916 43.6788C27.0082 42.8576 27.3233 41.8728 27.2986 40.8377C27.2438 38.5268 25.4126 36.5909 23.1078 36.4137C20.438 36.2084 18.1998 38.3227 18.1998 40.9498C18.1998 41.9281 18.5041 42.8576 19.0803 43.6411C19.5494 44.279 19.8007 45.0606 19.7011 45.8462C19.4991 47.441 18.1742 48.5343 16.6832 48.5343H1.46471C0.655662 48.5343 0 49.1901 0 49.999V87.9666C0 89.6419 1.35807 91 3.03339 91H41.0021C41.8111 91 42.467 90.3442 42.467 89.5353V79.9408C42.4668 79.3209 41.9474 78.8387 41.328 78.8602Z" fill="#FFE07D"/>
<path d="M78.8594 49.6497C78.8643 49.7837 78.8666 49.9183 78.8666 50.0532C78.865 55.6406 74.4515 60.3282 68.8734 60.6487C62.7378 61.0013 57.6333 56.1106 57.6333 50.05C57.6333 49.922 57.6356 49.7944 57.64 49.6672C57.6617 49.0504 57.1816 48.5334 56.5644 48.5334L49.9985 48.5336C49.1895 48.5336 48.5338 49.1894 48.5338 49.9985L48.5343 62.1834C48.5343 63.5477 47.6193 64.7728 46.2423 65.126C45.3346 65.3588 44.3785 65.1169 43.6207 64.5656C42.887 64.0318 42.0266 63.7355 41.1184 63.703C38.7022 63.6163 36.5991 65.4818 36.4139 67.8924C36.2088 70.562 38.323 72.8 40.95 72.8C41.9279 72.8 42.857 72.4961 43.6401 71.9204C44.2779 71.4513 45.0596 71.2002 45.845 71.2994C47.44 71.5009 48.5334 72.8259 48.5334 74.3171V89.5351C48.5334 90.3442 49.1893 90.9998 49.9981 90.9998H87.9666C89.642 90.9998 91 89.6417 91 87.9664V49.9983C91 49.1892 90.3442 48.5334 89.5351 48.5334H79.954C79.341 48.5336 78.837 49.0371 78.8594 49.6497Z" fill="#E27F84"/>
<path d="M6.06666 16.54C5.30809 16.54 4.69348 15.9252 4.69348 15.1668V7.58305C4.69348 5.98948 5.99005 4.69308 7.58362 4.69308H15.1668C15.9254 4.69308 16.54 5.30787 16.54 6.06626C16.54 6.82465 15.9252 7.43944 15.1668 7.43944H7.58344C7.50417 7.43944 7.43983 7.50378 7.43983 7.58287V15.1666C7.43983 15.9252 6.82523 16.54 6.06666 16.54Z" fill="#A8D4A4"/>
<path d="M84.9337 16.5398C84.1751 16.5398 83.5605 15.925 83.5605 15.1666V7.5832C83.5605 7.50411 83.4961 7.43977 83.4171 7.43977H75.8331C75.0746 7.43977 74.46 6.82499 74.46 6.0666C74.46 5.3082 75.0747 4.69342 75.8331 4.69342H83.4171C85.0106 4.69342 86.307 5.98981 86.307 7.58338V15.1668C86.307 15.925 85.6922 16.5398 84.9337 16.5398Z" fill="#AECAFC"/>
<path d="M83.417 86.3067H75.8336C75.0751 86.3067 74.4604 85.692 74.4604 84.9336C74.4604 84.175 75.0752 83.5604 75.8336 83.5604H83.417C83.4961 83.5604 83.5605 83.496 83.5605 83.4169V75.8332C83.5605 75.0746 84.1752 74.46 84.9336 74.46C85.6922 74.46 86.3068 75.0748 86.3068 75.8332V83.4169C86.307 85.0103 85.0106 86.3067 83.417 86.3067Z" fill="#C9646D"/>
<path d="M15.1671 86.3066H7.58338C5.98981 86.3066 4.69324 85.0102 4.69324 83.4166V75.8332C4.69324 75.0746 5.30802 74.46 6.06641 74.46C6.82481 74.46 7.43959 75.0748 7.43959 75.8332V83.4166C7.43959 83.4957 7.50393 83.56 7.5832 83.56H15.1669C15.9255 83.56 16.5401 84.1748 16.5401 84.9332C16.5403 85.6918 15.9257 86.3066 15.1671 86.3066Z" fill="#F1CB86"/>
<path d="M87.9666 0H83.7554C85.4307 0 86.7888 1.35807 86.7888 3.03339V41.0021C86.7888 41.8109 86.1329 42.467 85.3239 42.467H89.5351C90.3441 42.467 90.9998 41.8111 90.9998 41.0021V3.03339C91 1.35807 89.6419 0 87.9666 0V0Z" fill="#AECAFC"/>
<path d="M57.8994 42.4666L49.9965 42.4668L49.9982 42.467L57.901 42.4668L57.8994 42.4666Z" fill="#AECAFC"/>
<path d="M89.5354 48.5336H85.3241C86.1332 48.5336 86.789 49.1894 86.789 49.9983V87.9666C86.789 89.6419 85.4309 90.9998 83.7556 90.9998H87.9668C89.6422 90.9998 91.0002 89.6418 91.0002 87.9666V49.9983C91.0001 49.1894 90.3442 48.5336 89.5354 48.5336Z" fill="#C9646D"/>
</svg>
