<svg width="30" height="21" viewBox="0 0 30 21" fill="none" xmlns="http://www.w3.org/2000/svg">
<path d="M29.3731 3.28579C29.0281 1.99243 28.0115 0.97382 26.7208 0.628141C24.3813 0 15 0 15 0C15 0 5.61879 0 3.27919 0.628141C1.98847 0.973875 0.971904 1.99243 0.626879 3.28579C0 5.63008 0 10.5212 0 10.5212C0 10.5212 0 15.4124 0.626879 17.7566C0.971904 19.05 1.98847 20.0262 3.27919 20.3719C5.61879 21 15 21 15 21C15 21 24.3812 21 26.7208 20.3719C28.0115 20.0262 29.0281 19.05 29.3731 17.7566C30 15.4124 30 10.5212 30 10.5212C30 10.5212 30 5.63008 29.3731 3.28579V3.28579ZM11.9318 14.962V6.08043L19.7727 10.5213L11.9318 14.962V14.962Z" fill="white"/>
</svg>
